<svg width="1000" height="700" xmlns="http://www.w3.org/2000/svg">
  <defs>
    <linearGradient id="analyticsGrad" x1="0%" y1="0%" x2="100%" y2="100%">
      <stop offset="0%" style="stop-color:#0f172a;stop-opacity:1" />
      <stop offset="100%" style="stop-color:#1e293b;stop-opacity:1" />
    </linearGradient>
  </defs>
  <rect width="1000" height="700" fill="url(#analyticsGrad)"/>
  
  <!-- Header -->
  <text x="40" y="40" font-family="Arial, sans-serif" font-size="24" font-weight="bold" fill="#10b981">Real-Time Analytics Dashboard</text>
  <text x="40" y="65" font-family="Arial, sans-serif" font-size="14" fill="#94a3b8">Advanced portfolio performance and market intelligence</text>
  
  <!-- Performance Chart -->
  <rect x="40" y="90" width="600" height="280" rx="12" fill="#334155"/>
  <text x="60" y="120" font-family="Arial, sans-serif" font-size="18" font-weight="bold" fill="#e2e8f0">Portfolio Performance Trend</text>
  <text x="60" y="140" font-family="Arial, sans-serif" font-size="12" fill="#94a3b8">12-month performance analysis</text>
  
  <!-- Chart Grid -->
  <line x1="80" y1="160" x2="600" y2="160" stroke="#1e293b" stroke-width="1"/>
  <line x1="80" y1="200" x2="600" y2="200" stroke="#1e293b" stroke-width="1"/>
  <line x1="80" y1="240" x2="600" y2="240" stroke="#1e293b" stroke-width="1"/>
  <line x1="80" y1="280" x2="600" y2="280" stroke="#1e293b" stroke-width="1"/>
  <line x1="80" y1="320" x2="600" y2="320" stroke="#1e293b" stroke-width="1"/>
  
  <!-- Performance Line -->
  <path d="M 80 300 Q 120 280 160 260 Q 200 240 240 220 Q 280 200 320 180 Q 360 160 400 140 Q 440 120 480 110 Q 520 100 560 95 Q 580 92 600 90" 
        stroke="#10b981" stroke-width="3" fill="none"/>
  
  <!-- Data Points -->
  <circle cx="80" cy="300" r="4" fill="#10b981"/>
  <circle cx="160" cy="260" r="4" fill="#10b981"/>
  <circle cx="240" cy="220" r="4" fill="#10b981"/>
  <circle cx="320" cy="180" r="4" fill="#10b981"/>
  <circle cx="400" cy="140" r="4" fill="#10b981"/>
  <circle cx="480" cy="110" r="4" fill="#10b981"/>
  <circle cx="560" cy="95" r="4" fill="#10b981"/>
  <circle cx="600" cy="90" r="4" fill="#10b981"/>
  
  <!-- Y-axis Labels -->
  <text x="65" y="165" font-family="Arial, sans-serif" font-size="10" fill="#64748b">₦2.5M</text>
  <text x="65" y="205" font-family="Arial, sans-serif" font-size="10" fill="#64748b">₦2.0M</text>
  <text x="65" y="245" font-family="Arial, sans-serif" font-size="10" fill="#64748b">₦1.5M</text>
  <text x="65" y="285" font-family="Arial, sans-serif" font-size="10" fill="#64748b">₦1.0M</text>
  <text x="65" y="325" font-family="Arial, sans-serif" font-size="10" fill="#64748b">₦0.5M</text>
  
  <!-- Risk Assessment -->
  <rect x="660" y="90" width="300" height="280" rx="12" fill="#334155"/>
  <text x="680" y="120" font-family="Arial, sans-serif" font-size="18" font-weight="bold" fill="#e2e8f0">Risk Assessment</text>
  
  <!-- Risk Gauge -->
  <circle cx="810" cy="200" r="60" stroke="#1e293b" stroke-width="8" fill="none"/>
  <circle cx="810" cy="200" r="60" stroke="#10b981" stroke-width="8" fill="none" 
          stroke-dasharray="188.5" stroke-dashoffset="47.1"/>
  <text x="790" y="210" font-family="Arial, sans-serif" font-size="20" font-weight="bold" fill="#10b981">Low</text>
  <text x="785" y="225" font-family="Arial, sans-serif" font-size="12" fill="#94a3b8">Risk Score: 2.3/10</text>
  
  <rect x="680" y="280" width="260" height="30" rx="6" fill="#1e293b"/>
  <text x="700" y="300" font-family="Arial, sans-serif" font-size="12" fill="#10b981">✓ Diversified portfolio</text>
  
  <rect x="680" y="320" width="260" height="30" rx="6" fill="#1e293b"/>
  <text x="700" y="340" font-family="Arial, sans-serif" font-size="12" fill="#10b981">✓ High ESG compliance</text>
  
  <!-- AI Insights Panel -->
  <rect x="40" y="390" width="920" height="270" rx="12" fill="#334155"/>
  <text x="60" y="420" font-family="Arial, sans-serif" font-size="18" font-weight="bold" fill="#e2e8f0">AI-Powered Market Insights</text>
  <text x="60" y="440" font-family="Arial, sans-serif" font-size="12" fill="#94a3b8">Machine learning analysis and predictions</text>
  
  <!-- Insight Cards -->
  <rect x="70" y="460" width="280" height="120" rx="8" fill="#1e293b"/>
  <text x="90" y="485" font-family="Arial, sans-serif" font-size="14" font-weight="bold" fill="#10b981">Growth Opportunity</text>
  <text x="90" y="505" font-family="Arial, sans-serif" font-size="12" fill="#e2e8f0">Solar investments in West Africa</text>
  <text x="90" y="525" font-family="Arial, sans-serif" font-size="11" fill="#64748b">AI Confidence: 94%</text>
  <text x="90" y="545" font-family="Arial, sans-serif" font-size="11" fill="#64748b">Expected ROI: 18-24%</text>
  <text x="90" y="565" font-family="Arial, sans-serif" font-size="11" fill="#64748b">Timeline: 6-8 years</text>
  
  <rect x="360" y="460" width="280" height="120" rx="8" fill="#1e293b"/>
  <text x="380" y="485" font-family="Arial, sans-serif" font-size="14" font-weight="bold" fill="#fbbf24">Market Alert</text>
  <text x="380" y="505" font-family="Arial, sans-serif" font-size="12" fill="#e2e8f0">Wind energy price volatility</text>
  <text x="380" y="525" font-family="Arial, sans-serif" font-size="11" fill="#64748b">Impact: Medium</text>
  <text x="380" y="545" font-family="Arial, sans-serif" font-size="11" fill="#64748b">Duration: 3-4 months</text>
  <text x="380" y="565" font-family="Arial, sans-serif" font-size="11" fill="#64748b">Action: Monitor closely</text>
  
  <rect x="650" y="460" width="280" height="120" rx="8" fill="#1e293b"/>
  <text x="670" y="485" font-family="Arial, sans-serif" font-size="14" font-weight="bold" fill="#10b981">ESG Excellence</text>
  <text x="670" y="505" font-family="Arial, sans-serif" font-size="12" fill="#e2e8f0">Portfolio ESG score: A+</text>
  <text x="670" y="525" font-family="Arial, sans-serif" font-size="11" fill="#64748b">Environmental: 92/100</text>
  <text x="670" y="545" font-family="Arial, sans-serif" font-size="11" fill="#64748b">Social: 88/100</text>
  <text x="670" y="565" font-family="Arial, sans-serif" font-size="11" fill="#64748b">Governance: 94/100</text>
  
  <!-- Performance Metrics -->
  <rect x="70" y="600" width="860" height="40" rx="8" fill="#1e293b"/>
  <text x="90" y="625" font-family="Arial, sans-serif" font-size="12" fill="#94a3b8">
    📊 Portfolio Value: ₦2,450,000 | 🔄 24h Change: +₦147,000 (+6.4%) | 💹 YTD Return: +34.7% | 🎯 AI Prediction Accuracy: 94%
  </text>
</svg>