<?xml version="1.0" encoding="UTF-8"?>
<svg version="1.1" xmlns="http://www.w3.org/2000/svg" width="192" height="192">
<path d="M0 0 C63.36 0 126.72 0 192 0 C192 63.36 192 126.72 192 192 C128.64 192 65.28 192 0 192 C0 128.64 0 65.28 0 0 Z " fill="#F8F8F8" transform="translate(0,0)"/>
<path d="M0 0 C63.36 0 126.72 0 192 0 C192 16.5 192 33 192 50 C189.03 50.495 189.03 50.495 186 51 C185.67 52.98 185.34 54.96 185 57 C182.03 57.495 182.03 57.495 179 58 C178.67 59.98 178.34 61.96 178 64 C175.03 64.495 175.03 64.495 172 65 C171.67 66.98 171.34 68.96 171 71 C168.03 71.495 168.03 71.495 165 72 C164.67 73.98 164.34 75.96 164 78 C164.969375 77.979375 165.93875 77.95875 166.9375 77.9375 C170 78 170 78 171 79 C171.125 82 171.125 82 171 85 C170 86 170 86 166.9375 86.0625 C165.968125 86.041875 164.99875 86.02125 164 86 C164 83.69 164 81.38 164 79 C161.69 79 159.38 79 157 79 C157 81.31 157 83.62 157 86 C154.69 86 152.38 86 150 86 C150 87.98 150 89.96 150 92 C152.31 92.33 154.62 92.66 157 93 C157 95.31 157 97.62 157 100 C155.80375 99.979375 154.6075 99.95875 153.375 99.9375 C150.7480516 99.92826644 148.54118563 100.08427203 145.9375 100.5625 C142.43066811 101.08479411 139.4726031 100.62506856 136 100 C136 102.31 136 104.62 136 107 C139.465 106.505 139.465 106.505 143 106 C143 108.64 143 111.28 143 114 C140.69 114 138.38 114 136 114 C136 114.99 136 115.98 136 117 C133.34771188 118.07525194 130.71631546 119.09456151 128 120 C128 118.02 128 116.04 128 114 C130.31 114 132.62 114 135 114 C135 111.69 135 109.38 135 107 C131.535 107.495 131.535 107.495 128 108 C127.5 104.8125 127.5 104.8125 128 101 C129.640625 99.73828125 129.640625 99.73828125 131.75 98.625 C136.06883586 96.28180182 137.67606378 93.96800687 139.375 89.39453125 C141.0629761 82.92747281 140.5801226 77.5657401 137.2578125 71.72265625 C135.21161618 68.92025694 133.08752213 67.54376106 130 66 C128.66784598 65.82415567 127.33440144 65.65788719 126 65.5 C123.94140625 65.078125 123.94140625 65.078125 122 64 C120.20019276 61.09566558 118.87493939 58.10919647 117.48828125 54.98828125 C114.80264348 49.59585896 110.77135115 46.60777501 105.375 44.125 C97.89089797 41.71732377 89.7277745 41.78787229 82.5625 45.0625 C76.79144072 48.38835397 72.73385358 52.42096707 70.6875 58.8125 C69 62 69 62 67.03125 62.7421875 C65.45293623 63.04206712 63.86902881 63.31372526 62.28125 63.55859375 C57.45635067 64.49217872 54.642321 67.18407873 51.6875 70.9375 C48.88161616 76.02965957 48.88371085 80.55706118 48.9375 86.3125 C48.94652344 87.56675781 48.95554688 88.82101563 48.96484375 90.11328125 C48.97644531 91.06589844 48.98804688 92.01851563 49 93 C47.02 93 45.04 93 43 93 C43.185625 94.051875 43.37125 95.10375 43.5625 96.1875 C44.33545986 102.14573229 43.58951605 108.05042262 43 114 C40.69 113.67 38.38 113.34 36 113 C35.505 114.485 35.505 114.485 35 116 C35 113.03 35 110.06 35 107 C32.03 107.495 32.03 107.495 29 108 C28.67 109.65 28.34 111.3 28 113 C26.35 113 24.7 113 23 113 C23 118.61 23 124.22 23 130 C23.99 130 24.98 130 26 130 C26 128.02 26 126.04 26 124 C28.31 124 30.62 124 33 124 C33.495 122.515 33.495 122.515 34 121 C36 123 36 123 36.125 126.625 C36.08375 127.73875 36.0425 128.8525 36 130 C36.99 130 37.98 130 39 130 C39 127.36 39 124.72 39 122 C39.66 121.67 40.32 121.34 41 121 C41 123.97 41 126.94 41 130 C41.99 130.33 42.98 130.66 44 131 C43.67 134.63 43.34 138.26 43 142 C43.66 142.33 44.32 142.66 45 143 C44.34 143 43.68 143 43 143 C43.185625 144.0725 43.37125 145.145 43.5625 146.25 C44.29097737 151.8754641 43.60795738 157.38808571 43 163 C39.535 163.99 39.535 163.99 36 165 C35.505 167.97 35.505 167.97 35 171 C32.69 171.33 30.38 171.66 28 172 C28 169.36 28 166.72 28 164 C26.02 164.33 24.04 164.66 22 165 C21.505 167.97 21.505 167.97 21 171 C18.69 171 16.38 171 14 171 C13.95745644 169.00045254 13.95919217 166.99958364 14 165 C15 164 15 164 18.0625 163.9375 C19.031875 163.958125 20.00125 163.97875 21 164 C21 161.69 21 159.38 21 157 C23.31 157 25.62 157 28 157 C28 154.69 28 152.38 28 150 C25.69 150 23.38 150 21 150 C21 147.69 21 145.38 21 143 C18.69 142.67 16.38 142.34 14 142 C14 140.02 14 138.04 14 136 C16.31 135.67 18.62 135.34 21 135 C21 132.69 21 130.38 21 128 C19.02 128.33 17.04 128.66 15 129 C14.67 130.98 14.34 132.96 14 135 C12.02 135.33 10.04 135.66 8 136 C7.67 137.98 7.34 139.96 7 142 C4.69 142 2.38 142 0 142 C0 95.14 0 48.28 0 0 Z " fill="#F8F8F8" transform="translate(0,0)"/>
<path d="M0 0 C7.07581479 4.52959356 11.54010089 9.1722996 14.0625 17.3203125 C14.0625 17.9803125 14.0625 18.6403125 14.0625 19.3203125 C14.72636719 19.41828125 15.39023438 19.51625 16.07421875 19.6171875 C25.36785181 21.19099981 25.36785181 21.19099981 29.0625 25.3203125 C32.76711226 30.71217391 34.15097454 35.83344404 33.0625 42.3203125 C31.36696359 47.96001116 29.25493799 52.20484971 24.0625 55.3203125 C21.75 56.0703125 21.75 56.0703125 20.0625 56.3203125 C20.5575 59.2903125 20.5575 59.2903125 21.0625 62.3203125 C23.0425 62.3203125 25.0225 62.3203125 27.0625 62.3203125 C27.0625 64.6303125 27.0625 66.9403125 27.0625 69.3203125 C24.7525 69.3203125 22.4425 69.3203125 20.0625 69.3203125 C20.0625 71.3003125 20.0625 73.2803125 20.0625 75.3203125 C20.64 74.8253125 21.2175 74.3303125 21.8125 73.8203125 C24.0625 72.3203125 24.0625 72.3203125 28.0625 72.3203125 C28.0625 71.3303125 28.0625 70.3403125 28.0625 69.3203125 C30.3725 69.3203125 32.6825 69.3203125 35.0625 69.3203125 C34.5675 65.8553125 34.5675 65.8553125 34.0625 62.3203125 C32.0825 62.3203125 30.1025 62.3203125 28.0625 62.3203125 C28.0625 60.0103125 28.0625 57.7003125 28.0625 55.3203125 C29.25875 55.3409375 30.455 55.3615625 31.6875 55.3828125 C34.3144484 55.39204606 36.52131437 55.23604047 39.125 54.7578125 C42.63183189 54.23551839 45.5898969 54.69524394 49.0625 55.3203125 C49.0625 53.0103125 49.0625 50.7003125 49.0625 48.3203125 C46.7525 47.9903125 44.4425 47.6603125 42.0625 47.3203125 C42.0625 45.3403125 42.0625 43.3603125 42.0625 41.3203125 C44.3725 41.3203125 46.6825 41.3203125 49.0625 41.3203125 C49.0625 39.0103125 49.0625 36.7003125 49.0625 34.3203125 C51.3725 34.3203125 53.6825 34.3203125 56.0625 34.3203125 C56.0625 36.6303125 56.0625 38.9403125 56.0625 41.3203125 C59.0325 40.8253125 59.0325 40.8253125 62.0625 40.3203125 C62.0625 38.3403125 62.0625 36.3603125 62.0625 34.3203125 C59.0925 33.8253125 59.0925 33.8253125 56.0625 33.3203125 C56.01995644 31.32076504 56.02169217 29.31989614 56.0625 27.3203125 C57.0625 26.3203125 57.0625 26.3203125 60.125 26.2578125 C61.5790625 26.28875 61.5790625 26.28875 63.0625 26.3203125 C63.0315625 24.86625 63.0315625 24.86625 63 23.3828125 C63.0625 20.3203125 63.0625 20.3203125 64.0625 19.3203125 C66.06208364 19.27950467 68.06295254 19.27776894 70.0625 19.3203125 C70.0315625 17.86625 70.0315625 17.86625 70 16.3828125 C70.0625 13.3203125 70.0625 13.3203125 71.0625 12.3203125 C73.06208364 12.27950467 75.06295254 12.27776894 77.0625 12.3203125 C77.0315625 10.86625 77.0315625 10.86625 77 9.3828125 C77.0625 6.3203125 77.0625 6.3203125 78.0625 5.3203125 C80.0425 5.3203125 82.0225 5.3203125 84.0625 5.3203125 C84.0625 26.4403125 84.0625 47.5603125 84.0625 69.3203125 C68.3125 70.4453125 68.3125 70.4453125 63.0625 69.3203125 C63.14628906 70.33351563 63.23007813 71.34671875 63.31640625 72.390625 C63.41964841 73.74215871 63.5224918 75.09372292 63.625 76.4453125 C63.68107422 77.11046875 63.73714844 77.775625 63.79492188 78.4609375 C64.09875857 82.5931166 63.91477531 86.26726991 63.0625 90.3203125 C60.7525 90.3203125 58.4425 90.3203125 56.0625 90.3203125 C56.0625 89.0003125 56.0625 87.6803125 56.0625 86.3203125 C53.7525 85.9903125 51.4425 85.6603125 49.0625 85.3203125 C49.0625 86.9703125 49.0625 88.6203125 49.0625 90.3203125 C49.7225 90.6503125 50.3825 90.9803125 51.0625 91.3203125 C50.4025 93.3003125 49.7425 95.2803125 49.0625 97.3203125 C55.9925 97.8153125 55.9925 97.8153125 63.0625 98.3203125 C63.0625 100.6303125 63.0625 102.9403125 63.0625 105.3203125 C60.7525 105.3203125 58.4425 105.3203125 56.0625 105.3203125 C56.0625 107.6303125 56.0625 109.9403125 56.0625 112.3203125 C53.7525 112.3203125 51.4425 112.3203125 49.0625 112.3203125 C49.0625 110.0103125 49.0625 107.7003125 49.0625 105.3203125 C46.7525 105.3203125 44.4425 105.3203125 42.0625 105.3203125 C42.083125 106.2896875 42.10375 107.2590625 42.125 108.2578125 C42.0625 111.3203125 42.0625 111.3203125 41.0625 112.3203125 C39.06291636 112.36112033 37.06204746 112.36285606 35.0625 112.3203125 C34.5675 108.8553125 34.5675 108.8553125 34.0625 105.3203125 C32.0825 105.3203125 30.1025 105.3203125 28.0625 105.3203125 C28.0625 103.0103125 28.0625 100.7003125 28.0625 98.3203125 C33.8125 98.1953125 33.8125 98.1953125 36.0625 99.3203125 C35.7325 98.6603125 35.4025 98.0003125 35.0625 97.3203125 C35.02227609 94.9873259 35.01929753 92.65324584 35.0625 90.3203125 C32.7525 90.3203125 30.4425 90.3203125 28.0625 90.3203125 C28.0625 89.0003125 28.0625 87.6803125 28.0625 86.3203125 C27.134375 86.2378125 26.20625 86.1553125 25.25 86.0703125 C22.0625 85.3203125 22.0625 85.3203125 20.1875 83.2578125 C19.81625 82.6184375 19.445 81.9790625 19.0625 81.3203125 C18.5675 83.3003125 18.5675 83.3003125 18.0625 85.3203125 C16.7425 85.3203125 15.4225 85.3203125 14.0625 85.3203125 C13.7325 84.6603125 13.4025 84.0003125 13.0625 83.3203125 C12.0725 83.9803125 11.0825 84.6403125 10.0625 85.3203125 C7.90625 85.62109375 7.90625 85.62109375 5.5625 85.6328125 C4.40234375 85.65794922 4.40234375 85.65794922 3.21875 85.68359375 C0.5131939 85.22776636 -0.31602199 84.50707642 -1.9375 82.3203125 C-3.58834161 75.49683386 -3.58834161 75.49683386 -1.3125 71.3828125 C1.24930376 69.15808818 2.72240077 68.5986541 6.0625 68.3203125 C6.0625 66.3403125 6.0625 64.3603125 6.0625 62.3203125 C3.7525 62.3203125 1.4425 62.3203125 -0.9375 62.3203125 C-0.9375 61.3303125 -0.9375 60.3403125 -0.9375 59.3203125 C-1.91332031 59.34351563 -2.88914062 59.36671875 -3.89453125 59.390625 C-5.16683594 59.40867188 -6.43914062 59.42671875 -7.75 59.4453125 C-9.64685547 59.48011719 -9.64685547 59.48011719 -11.58203125 59.515625 C-14.9375 59.3203125 -14.9375 59.3203125 -17.9375 57.3203125 C-16.91186523 55.35180664 -16.91186523 55.35180664 -14.9375 53.3203125 C-12.27541703 52.92996037 -10.00918992 52.7859762 -7.34765625 52.81640625 C-6.23625526 52.8022744 -6.23625526 52.8022744 -5.10240173 52.78785706 C-2.7346535 52.75917756 -0.367908 52.75612955 2 52.7578125 C4.36419126 52.75420378 6.72765129 52.7446523 9.09169006 52.71705627 C10.56184159 52.70028277 12.03223368 52.69738107 13.50242615 52.71006775 C17.71387343 52.66684699 19.92827762 52.13864328 23.0625 49.3203125 C23.7225 49.3203125 24.3825 49.3203125 25.0625 49.3203125 C27.62833953 43.70431835 27.86953185 38.40599144 27.0625 32.3203125 C25.43821082 28.80996852 23.12176785 26.87782189 19.6875 25.0703125 C16.93659019 24.21883889 16.93659019 24.21883889 13.5 23.8203125 C10.0625 22.3203125 10.0625 22.3203125 8.90234375 20.1796875 C8.24946419 18.41400512 7.61849111 16.64009329 7.0078125 14.859375 C5.1543482 9.88106179 2.06523279 6.66743888 -2.5 3.9453125 C-8.71160185 1.18460057 -15.40278408 0.9770224 -21.75390625 3.390625 C-27.5612938 6.55829094 -31.21377855 10.28832663 -33.9375 16.3203125 C-34.164375 17.2690625 -34.39125 18.2178125 -34.625 19.1953125 C-35.9375 21.3203125 -35.9375 21.3203125 -38.06640625 21.890625 C-39.83962385 22.18131641 -41.61445529 22.46230276 -43.390625 22.734375 C-47.36728194 23.64925006 -49.14058617 25.38355298 -51.9375 28.3203125 C-54.84062709 33.00535898 -54.55617234 37.9842636 -53.9375 43.3203125 C-51.57295434 48.41318008 -49.05757401 50.2358787 -43.9375 52.3203125 C-40.98188194 52.7915181 -38.05141281 52.91915831 -35.0625 53.0078125 C-33.886875 53.05905273 -33.886875 53.05905273 -32.6875 53.11132812 C-30.77131252 53.19311662 -28.85443285 53.2584071 -26.9375 53.3203125 C-26.4425 55.7953125 -26.4425 55.7953125 -25.9375 58.3203125 C-46.7633317 59.3411866 -46.7633317 59.3411866 -53.9375 53.3203125 C-54.2675 52.3303125 -54.5975 51.3403125 -54.9375 50.3203125 C-55.9275 50.3203125 -56.9175 50.3203125 -57.9375 50.3203125 C-57.76347656 51.16851562 -57.58945312 52.01671875 -57.41015625 52.890625 C-56.91564151 56.47892205 -57.04428663 59.59421133 -57.375 63.1953125 C-57.47683594 64.34773438 -57.57867187 65.50015625 -57.68359375 66.6875 C-57.80927734 67.99074219 -57.80927734 67.99074219 -57.9375 69.3203125 C-55.6275 69.3203125 -53.3175 69.3203125 -50.9375 69.3203125 C-50.9375 70.6403125 -50.9375 71.9603125 -50.9375 73.3203125 C-48.6275 72.9903125 -46.3175 72.6603125 -43.9375 72.3203125 C-43.9375 71.3303125 -43.9375 70.3403125 -43.9375 69.3203125 C-41.6275 69.3203125 -39.3175 69.3203125 -36.9375 69.3203125 C-36.6075 70.9703125 -36.2775 72.6203125 -35.9375 74.3203125 C-33.4625 73.8253125 -33.4625 73.8253125 -30.9375 73.3203125 C-30.6075 73.9803125 -30.2775 74.6403125 -29.9375 75.3203125 C-29.2775 74.6603125 -28.6175 74.0003125 -27.9375 73.3203125 C-25.5546875 73.125 -25.5546875 73.125 -22.8125 73.1953125 C-21.90242188 73.21335937 -20.99234375 73.23140625 -20.0546875 73.25 C-19.35601562 73.27320312 -18.65734375 73.29640625 -17.9375 73.3203125 C-17.9375 74.3103125 -17.9375 75.3003125 -17.9375 76.3203125 C-17.2775 76.3203125 -16.6175 76.3203125 -15.9375 76.3203125 C-15.9375 75.3303125 -15.9375 74.3403125 -15.9375 73.3203125 C-14.9475 73.3203125 -13.9575 73.3203125 -12.9375 73.3203125 C-11.9475 76.7853125 -11.9475 76.7853125 -10.9375 80.3203125 C-10.2775 80.3203125 -9.6175 80.3203125 -8.9375 80.3203125 C-8.2775 78.0103125 -7.6175 75.7003125 -6.9375 73.3203125 C-5.9475 73.3203125 -4.9575 73.3203125 -3.9375 73.3203125 C-5.67374758 79.7391672 -7.78930745 85.45816086 -10.9375 91.3203125 C-11.54980469 91.14628906 -12.16210938 90.97226563 -12.79296875 90.79296875 C-15.46697761 90.20361525 -17.26263173 90.76045635 -19.9375 91.3203125 C-22.27051986 91.35855873 -24.60461508 91.36605534 -26.9375 91.3203125 C-27.5975 90.0003125 -28.2575 88.6803125 -28.9375 87.3203125 C-27.98875 87.3821875 -27.04 87.4440625 -26.0625 87.5078125 C-24.515625 87.415 -24.515625 87.415 -22.9375 87.3203125 C-21.9475 85.8353125 -21.9475 85.8353125 -20.9375 84.3203125 C-21.88625 84.5059375 -22.835 84.6915625 -23.8125 84.8828125 C-26.9375 85.3203125 -26.9375 85.3203125 -28.9375 84.3203125 C-29.2675 88.6103125 -29.5975 92.9003125 -29.9375 97.3203125 C-32.2475 97.3203125 -34.5575 97.3203125 -36.9375 97.3203125 C-36.9375 95.3403125 -36.9375 93.3603125 -36.9375 91.3203125 C-38.9175 91.3203125 -40.8975 91.3203125 -42.9375 91.3203125 C-43.2675 93.3003125 -43.5975 95.2803125 -43.9375 97.3203125 C-47.4025 97.8153125 -47.4025 97.8153125 -50.9375 98.3203125 C-50.9375 100.6303125 -50.9375 102.9403125 -50.9375 105.3203125 C-48.6275 105.3203125 -46.3175 105.3203125 -43.9375 105.3203125 C-43.9375 107.6303125 -43.9375 109.9403125 -43.9375 112.3203125 C-48.5575 112.6503125 -53.1775 112.9803125 -57.9375 113.3203125 C-57.916875 112.1446875 -57.89625 110.9690625 -57.875 109.7578125 C-57.86802739 105.84617783 -58.29499657 102.17533306 -58.9375 98.3203125 C-60.9175 97.9903125 -62.8975 97.6603125 -64.9375 97.3203125 C-64.9375 93.6903125 -64.9375 90.0603125 -64.9375 86.3203125 C-65.5975 85.9903125 -66.2575 85.6603125 -66.9375 85.3203125 C-67.53105614 82.67170823 -67.67959269 80.02833928 -67.9375 77.3203125 C-68.2675 79.9603125 -68.5975 82.6003125 -68.9375 85.3203125 C-69.9275 85.3203125 -70.9175 85.3203125 -71.9375 85.3203125 C-72.1540625 83.61875 -72.1540625 83.61875 -72.375 81.8828125 C-72.54921478 78.51254049 -72.54921478 78.51254049 -73.9375 77.3203125 C-74.4325 78.3103125 -74.4325 78.3103125 -74.9375 79.3203125 C-77.2475 79.3203125 -79.5575 79.3203125 -81.9375 79.3203125 C-81.9375 81.3003125 -81.9375 83.2803125 -81.9375 85.3203125 C-82.9275 85.3203125 -83.9175 85.3203125 -84.9375 85.3203125 C-84.9375 79.7103125 -84.9375 74.1003125 -84.9375 68.3203125 C-83.2875 68.3203125 -81.6375 68.3203125 -79.9375 68.3203125 C-79.958125 67.5159375 -79.97875 66.7115625 -80 65.8828125 C-79.9375 63.3203125 -79.9375 63.3203125 -78.9375 62.3203125 C-76.93791636 62.27950467 -74.93704746 62.27776894 -72.9375 62.3203125 C-72.6075 64.3003125 -72.2775 66.2803125 -71.9375 68.3203125 C-69.6275 68.6503125 -67.3175 68.9803125 -64.9375 69.3203125 C-64.9375 62.3903125 -64.9375 55.4603125 -64.9375 48.3203125 C-62.9575 48.3203125 -60.9775 48.3203125 -58.9375 48.3203125 C-59.2675 47.3303125 -59.5975 46.3403125 -59.9375 45.3203125 C-60.545356 36.31556205 -59.63225845 29.5969483 -53.9375 22.3203125 C-49.18316965 18.22937709 -44.98924197 17.58927881 -38.9375 17.3203125 C-38.6590625 15.8353125 -38.6590625 15.8353125 -38.375 14.3203125 C-36.37848725 7.51840008 -31.33076709 2.79012773 -25.3125 -0.6796875 C-17.18841526 -4.32748811 -7.89914398 -4.15285878 0 0 Z " fill="#F7F7F7" transform="translate(107.9375,44.6796875)"/>
<path d="M0 0 C5.15972784 2.60154345 9.45790742 6.12385611 12.44921875 11.109375 C12.92772774 12.70179017 13.36515324 14.30710172 13.76171875 15.921875 C14.32525429 18.23155644 14.32525429 18.23155644 15.44921875 20.109375 C17.67853603 21.03713128 19.69766387 21.29668445 22.08984375 21.58984375 C26.09025562 22.47072915 28.74125114 25.14350571 31.44921875 28.109375 C32.78749776 30.78593301 32.65500431 32.93371552 32.69921875 35.921875 C32.725 36.95957031 32.75078125 37.99726562 32.77734375 39.06640625 C32.25675016 43.894292 30.5752991 46.19952559 26.83007812 49.22558594 C22.91665511 51.4061154 19.85368479 51.66375228 15.49609375 51.61328125 C14.75466125 51.62270248 14.01322876 51.63212372 13.24932861 51.64183044 C10.89900554 51.67034145 8.54970036 51.67356218 6.19921875 51.671875 C3.83460533 51.67547959 1.47072187 51.68492881 -0.89373779 51.71263123 C-2.36048063 51.72946306 -3.82746554 51.73226088 -5.29425049 51.71961975 C-7.51162731 51.70852819 -7.51162731 51.70852819 -10.55078125 52.109375 C-11.21078125 53.099375 -11.87078125 54.089375 -12.55078125 55.109375 C-9.58921165 56.5901598 -6.7157183 56.46251537 -3.42578125 56.671875 C-2.14445312 56.75566406 -0.863125 56.83945313 0.45703125 56.92578125 C1.44445312 56.98636719 2.431875 57.04695313 3.44921875 57.109375 C3.44921875 58.099375 3.44921875 59.089375 3.44921875 60.109375 C5.75921875 60.109375 8.06921875 60.109375 10.44921875 60.109375 C10.44921875 62.089375 10.44921875 64.069375 10.44921875 66.109375 C9.50046875 66.5425 8.55171875 66.975625 7.57421875 67.421875 C4.24879938 68.90239701 4.24879938 68.90239701 2.44921875 72.109375 C2.34773295 74.10813615 2.34773295 74.10813615 2.69921875 76.171875 C2.786875 76.86410156 2.87453125 77.55632812 2.96484375 78.26953125 C3.34501964 80.34102972 3.34501964 80.34102972 5.44921875 82.109375 C7.77197052 82.50984944 10.10661232 82.8490854 12.44921875 83.109375 C11.45921875 83.604375 11.45921875 83.604375 10.44921875 84.109375 C10.44921875 85.429375 10.44921875 86.749375 10.44921875 88.109375 C12.75921875 88.439375 15.06921875 88.769375 17.44921875 89.109375 C17.44921875 91.089375 17.44921875 93.069375 17.44921875 95.109375 C13.98421875 95.604375 13.98421875 95.604375 10.44921875 96.109375 C10.44921875 98.419375 10.44921875 100.729375 10.44921875 103.109375 C8.13921875 103.109375 5.82921875 103.109375 3.44921875 103.109375 C3.44921875 105.419375 3.44921875 107.729375 3.44921875 110.109375 C1.13921875 110.109375 -1.17078125 110.109375 -3.55078125 110.109375 C-3.55078125 107.799375 -3.55078125 105.489375 -3.55078125 103.109375 C-5.86078125 103.109375 -8.17078125 103.109375 -10.55078125 103.109375 C-10.55078125 105.089375 -10.55078125 107.069375 -10.55078125 109.109375 C-18.16223322 111.64652566 -24.70181612 111.41753586 -32.55078125 110.109375 C-32.55078125 112.419375 -32.55078125 114.729375 -32.55078125 117.109375 C-34.86078125 117.109375 -37.17078125 117.109375 -39.55078125 117.109375 C-39.55078125 112.489375 -39.55078125 107.869375 -39.55078125 103.109375 C-41.86078125 103.109375 -44.17078125 103.109375 -46.55078125 103.109375 C-46.55078125 100.799375 -46.55078125 98.489375 -46.55078125 96.109375 C-43.08578125 95.614375 -43.08578125 95.614375 -39.55078125 95.109375 C-39.57140625 94.14 -39.59203125 93.170625 -39.61328125 92.171875 C-39.55078125 89.109375 -39.55078125 89.109375 -38.55078125 88.109375 C-35.88019274 87.96822339 -33.22645887 88.06690393 -30.55078125 88.109375 C-31.54078125 88.604375 -31.54078125 88.604375 -32.55078125 89.109375 C-32.55078125 91.089375 -32.55078125 93.069375 -32.55078125 95.109375 C-30.24078125 95.109375 -27.93078125 95.109375 -25.55078125 95.109375 C-25.55078125 93.129375 -25.55078125 91.149375 -25.55078125 89.109375 C-26.87078125 88.779375 -28.19078125 88.449375 -29.55078125 88.109375 C-28.23078125 88.109375 -26.91078125 88.109375 -25.55078125 88.109375 C-25.55078125 85.799375 -25.55078125 83.489375 -25.55078125 81.109375 C-22.58078125 81.439375 -19.61078125 81.769375 -16.55078125 82.109375 C-17.21078125 83.429375 -17.87078125 84.749375 -18.55078125 86.109375 C-21.52078125 85.614375 -21.52078125 85.614375 -24.55078125 85.109375 C-23.89078125 86.099375 -23.23078125 87.089375 -22.55078125 88.109375 C-19.95393281 88.51232047 -19.95393281 88.51232047 -17.05078125 88.359375 C-16.07109375 88.34390625 -15.09140625 88.3284375 -14.08203125 88.3125 C-11.5578469 88.2688393 -11.5578469 88.2688393 -9.55078125 87.109375 C-9.55078125 87.769375 -9.55078125 88.429375 -9.55078125 89.109375 C-8.56078125 88.779375 -7.57078125 88.449375 -6.55078125 88.109375 C-5.37327119 85.6284023 -4.36928613 83.23925135 -3.42578125 80.671875 C-2.90277033 79.29801461 -2.37935084 77.92430968 -1.85546875 76.55078125 C-1.42492187 75.41511719 -0.994375 74.27945313 -0.55078125 73.109375 C-0.22078125 72.449375 0.10921875 71.789375 0.44921875 71.109375 C-0.54078125 71.109375 -1.53078125 71.109375 -2.55078125 71.109375 C-2.69515625 71.893125 -2.83953125 72.676875 -2.98828125 73.484375 C-3.55078125 76.109375 -3.55078125 76.109375 -4.55078125 78.109375 C-5.21078125 78.109375 -5.87078125 78.109375 -6.55078125 78.109375 C-8.01140975 75.46198584 -8.55078125 74.21489166 -8.55078125 71.109375 C-9.54078125 71.109375 -10.53078125 71.109375 -11.55078125 71.109375 C-11.55078125 72.099375 -11.55078125 73.089375 -11.55078125 74.109375 C-12.21078125 74.109375 -12.87078125 74.109375 -13.55078125 74.109375 C-13.55078125 73.119375 -13.55078125 72.129375 -13.55078125 71.109375 C-14.08703125 71.274375 -14.62328125 71.439375 -15.17578125 71.609375 C-17.55078125 72.109375 -17.55078125 72.109375 -20.61328125 72.046875 C-23.74412034 71.85052432 -23.74412034 71.85052432 -26.55078125 74.109375 C-26.55078125 73.119375 -26.55078125 72.129375 -26.55078125 71.109375 C-29.02578125 71.604375 -29.02578125 71.604375 -31.55078125 72.109375 C-31.88078125 70.459375 -32.21078125 68.809375 -32.55078125 67.109375 C-34.86078125 67.109375 -37.17078125 67.109375 -39.55078125 67.109375 C-39.55078125 68.099375 -39.55078125 69.089375 -39.55078125 70.109375 C-43.01578125 70.604375 -43.01578125 70.604375 -46.55078125 71.109375 C-46.55078125 69.789375 -46.55078125 68.469375 -46.55078125 67.109375 C-48.86078125 67.109375 -51.17078125 67.109375 -53.55078125 67.109375 C-53.55078125 60.839375 -53.55078125 54.569375 -53.55078125 48.109375 C-52.56078125 48.109375 -51.57078125 48.109375 -50.55078125 48.109375 C-49.97328125 48.7075 -49.39578125 49.305625 -48.80078125 49.921875 C-43.42288591 55.15038436 -37.25424539 55.59547795 -30.11328125 55.796875 C-29.28634766 55.83103516 -28.45941406 55.86519531 -27.60742188 55.90039062 C-25.58899181 55.98206121 -23.56991241 56.04741224 -21.55078125 56.109375 C-21.88078125 54.789375 -22.21078125 53.469375 -22.55078125 52.109375 C-23.70835938 52.07199219 -24.8659375 52.03460938 -26.05859375 51.99609375 C-27.59768686 51.93040075 -29.13674795 51.86395458 -30.67578125 51.796875 C-31.43632813 51.77431641 -32.196875 51.75175781 -32.98046875 51.72851562 C-37.84701586 51.49777417 -41.32065942 50.75080854 -45.55078125 48.109375 C-50.22255737 42.932542 -50.9035858 39.71349802 -50.83203125 32.87109375 C-50.32579805 27.900165 -47.72298264 25.35052942 -44.42578125 21.859375 C-41.46546359 20.05744251 -39.79200615 19.76168803 -36.42578125 19.296875 C-33.82115924 18.93206469 -33.82115924 18.93206469 -31.55078125 18.109375 C-29.52939495 14.89314623 -29.52939495 14.89314623 -28.55078125 11.109375 C-23.04684254 0.32165513 -11.33531128 -3.95781159 0 0 Z " fill="#F6F7F8" transform="translate(103.55078125,46.890625)"/>
<path d="M0 0 C7.07581479 4.52959356 11.54010089 9.1722996 14.0625 17.3203125 C14.0625 17.9803125 14.0625 18.6403125 14.0625 19.3203125 C14.72636719 19.41828125 15.39023438 19.51625 16.07421875 19.6171875 C25.36785181 21.19099981 25.36785181 21.19099981 29.0625 25.3203125 C32.76711226 30.71217391 34.15097454 35.83344404 33.0625 42.3203125 C31.35999964 47.98317467 29.24859182 52.18453605 24.0625 55.3203125 C18.70603336 58.01537699 14.67597021 58.73965022 8.72265625 58.61328125 C7.95569931 58.60903641 7.18874237 58.60479156 6.39854431 58.60041809 C3.97365668 58.5837632 1.54963202 58.54613803 -0.875 58.5078125 C-2.52928478 58.49274851 -4.18358273 58.47906312 -5.83789062 58.46679688 C-9.87142103 58.43390327 -13.90431473 58.38221499 -17.9375 58.3203125 C-16.91186523 55.85791016 -16.91186523 55.85791016 -14.9375 53.3203125 C-12.20803929 52.82889584 -10.07629421 52.66787445 -7.34765625 52.71875 C-6.23625526 52.70674057 -6.23625526 52.70674057 -5.10240173 52.69448853 C-2.73437903 52.67139894 -0.36806932 52.68088625 2 52.6953125 C4.36417848 52.69916178 6.72759685 52.69570214 9.09169006 52.67471313 C10.5618894 52.66263901 12.03230193 52.6652693 13.50242615 52.68441772 C17.72008259 52.66142977 19.92538275 52.14544351 23.0625 49.3203125 C23.7225 49.3203125 24.3825 49.3203125 25.0625 49.3203125 C27.62833953 43.70431835 27.86953185 38.40599144 27.0625 32.3203125 C25.43821082 28.80996852 23.12176785 26.87782189 19.6875 25.0703125 C16.93659019 24.21883889 16.93659019 24.21883889 13.5 23.8203125 C10.0625 22.3203125 10.0625 22.3203125 8.90234375 20.1796875 C8.24946419 18.41400512 7.61849111 16.64009329 7.0078125 14.859375 C5.1543482 9.88106179 2.06523279 6.66743888 -2.5 3.9453125 C-8.71160185 1.18460057 -15.40278408 0.9770224 -21.75390625 3.390625 C-27.5612938 6.55829094 -31.21377855 10.28832663 -33.9375 16.3203125 C-34.164375 17.2690625 -34.39125 18.2178125 -34.625 19.1953125 C-35.9375 21.3203125 -35.9375 21.3203125 -38.06640625 21.890625 C-39.83962385 22.18131641 -41.61445529 22.46230276 -43.390625 22.734375 C-47.36728194 23.64925006 -49.14058617 25.38355298 -51.9375 28.3203125 C-54.84062709 33.00535898 -54.55617234 37.9842636 -53.9375 43.3203125 C-51.57295434 48.41318008 -49.05757401 50.2358787 -43.9375 52.3203125 C-40.98188194 52.7915181 -38.05141281 52.91915831 -35.0625 53.0078125 C-33.886875 53.05905273 -33.886875 53.05905273 -32.6875 53.11132812 C-30.77131252 53.19311662 -28.85443285 53.2584071 -26.9375 53.3203125 C-26.4425 55.7953125 -26.4425 55.7953125 -25.9375 58.3203125 C-46.7633317 59.3411866 -46.7633317 59.3411866 -53.9375 53.3203125 C-54.2675 52.3303125 -54.5975 51.3403125 -54.9375 50.3203125 C-55.9275 50.3203125 -56.9175 50.3203125 -57.9375 50.3203125 C-57.76347656 51.16851562 -57.58945312 52.01671875 -57.41015625 52.890625 C-56.91564151 56.47892205 -57.04428663 59.59421133 -57.375 63.1953125 C-57.47683594 64.34773438 -57.57867187 65.50015625 -57.68359375 66.6875 C-57.80927734 67.99074219 -57.80927734 67.99074219 -57.9375 69.3203125 C-55.6275 69.3203125 -53.3175 69.3203125 -50.9375 69.3203125 C-50.9375 70.6403125 -50.9375 71.9603125 -50.9375 73.3203125 C-48.6275 72.9903125 -46.3175 72.6603125 -43.9375 72.3203125 C-43.9375 71.3303125 -43.9375 70.3403125 -43.9375 69.3203125 C-41.6275 69.3203125 -39.3175 69.3203125 -36.9375 69.3203125 C-36.6075 70.9703125 -36.2775 72.6203125 -35.9375 74.3203125 C-33.4625 73.8253125 -33.4625 73.8253125 -30.9375 73.3203125 C-30.6075 73.9803125 -30.2775 74.6403125 -29.9375 75.3203125 C-29.2775 74.6603125 -28.6175 74.0003125 -27.9375 73.3203125 C-25.5546875 73.125 -25.5546875 73.125 -22.8125 73.1953125 C-21.90242188 73.21335937 -20.99234375 73.23140625 -20.0546875 73.25 C-19.35601562 73.27320312 -18.65734375 73.29640625 -17.9375 73.3203125 C-17.9375 74.3103125 -17.9375 75.3003125 -17.9375 76.3203125 C-17.2775 76.3203125 -16.6175 76.3203125 -15.9375 76.3203125 C-15.9375 75.3303125 -15.9375 74.3403125 -15.9375 73.3203125 C-14.9475 73.3203125 -13.9575 73.3203125 -12.9375 73.3203125 C-11.9475 76.7853125 -11.9475 76.7853125 -10.9375 80.3203125 C-10.2775 80.3203125 -9.6175 80.3203125 -8.9375 80.3203125 C-8.2775 78.0103125 -7.6175 75.7003125 -6.9375 73.3203125 C-5.9475 73.3203125 -4.9575 73.3203125 -3.9375 73.3203125 C-5.67374758 79.7391672 -7.78930745 85.45816086 -10.9375 91.3203125 C-11.54980469 91.14628906 -12.16210938 90.97226563 -12.79296875 90.79296875 C-15.46697761 90.20361525 -17.26263173 90.76045635 -19.9375 91.3203125 C-22.27051986 91.35855873 -24.60461508 91.36605534 -26.9375 91.3203125 C-27.5975 90.0003125 -28.2575 88.6803125 -28.9375 87.3203125 C-27.98875 87.3821875 -27.04 87.4440625 -26.0625 87.5078125 C-24.515625 87.415 -24.515625 87.415 -22.9375 87.3203125 C-21.9475 85.8353125 -21.9475 85.8353125 -20.9375 84.3203125 C-21.88625 84.5059375 -22.835 84.6915625 -23.8125 84.8828125 C-26.9375 85.3203125 -26.9375 85.3203125 -28.9375 84.3203125 C-29.2675 88.6103125 -29.5975 92.9003125 -29.9375 97.3203125 C-32.2475 97.3203125 -34.5575 97.3203125 -36.9375 97.3203125 C-36.9375 95.3403125 -36.9375 93.3603125 -36.9375 91.3203125 C-38.9175 91.3203125 -40.8975 91.3203125 -42.9375 91.3203125 C-43.2675 93.3003125 -43.5975 95.2803125 -43.9375 97.3203125 C-47.4025 97.8153125 -47.4025 97.8153125 -50.9375 98.3203125 C-50.9375 100.6303125 -50.9375 102.9403125 -50.9375 105.3203125 C-48.6275 105.3203125 -46.3175 105.3203125 -43.9375 105.3203125 C-43.9375 107.6303125 -43.9375 109.9403125 -43.9375 112.3203125 C-48.5575 112.6503125 -53.1775 112.9803125 -57.9375 113.3203125 C-57.916875 112.1446875 -57.89625 110.9690625 -57.875 109.7578125 C-57.86802739 105.84617783 -58.29499657 102.17533306 -58.9375 98.3203125 C-60.9175 97.9903125 -62.8975 97.6603125 -64.9375 97.3203125 C-64.9375 93.6903125 -64.9375 90.0603125 -64.9375 86.3203125 C-65.5975 85.9903125 -66.2575 85.6603125 -66.9375 85.3203125 C-67.53105614 82.67170823 -67.67959269 80.02833928 -67.9375 77.3203125 C-68.2675 79.9603125 -68.5975 82.6003125 -68.9375 85.3203125 C-69.9275 85.3203125 -70.9175 85.3203125 -71.9375 85.3203125 C-72.1540625 83.61875 -72.1540625 83.61875 -72.375 81.8828125 C-72.54921478 78.51254049 -72.54921478 78.51254049 -73.9375 77.3203125 C-74.4325 78.3103125 -74.4325 78.3103125 -74.9375 79.3203125 C-77.2475 79.3203125 -79.5575 79.3203125 -81.9375 79.3203125 C-81.9375 81.3003125 -81.9375 83.2803125 -81.9375 85.3203125 C-82.9275 85.3203125 -83.9175 85.3203125 -84.9375 85.3203125 C-84.9375 79.7103125 -84.9375 74.1003125 -84.9375 68.3203125 C-83.2875 68.3203125 -81.6375 68.3203125 -79.9375 68.3203125 C-79.958125 67.5159375 -79.97875 66.7115625 -80 65.8828125 C-79.9375 63.3203125 -79.9375 63.3203125 -78.9375 62.3203125 C-76.93791636 62.27950467 -74.93704746 62.27776894 -72.9375 62.3203125 C-72.6075 64.3003125 -72.2775 66.2803125 -71.9375 68.3203125 C-69.6275 68.6503125 -67.3175 68.9803125 -64.9375 69.3203125 C-64.9375 62.3903125 -64.9375 55.4603125 -64.9375 48.3203125 C-62.9575 48.3203125 -60.9775 48.3203125 -58.9375 48.3203125 C-59.2675 47.3303125 -59.5975 46.3403125 -59.9375 45.3203125 C-60.545356 36.31556205 -59.63225845 29.5969483 -53.9375 22.3203125 C-49.18316965 18.22937709 -44.98924197 17.58927881 -38.9375 17.3203125 C-38.6590625 15.8353125 -38.6590625 15.8353125 -38.375 14.3203125 C-36.37848725 7.51840008 -31.33076709 2.79012773 -25.3125 -0.6796875 C-17.18841526 -4.32748811 -7.89914398 -4.15285878 0 0 Z " fill="#F4F5F6" transform="translate(107.9375,44.6796875)"/>
<path d="M0 0 C7.09759381 3.57861873 11.77048884 8.51573633 14.32421875 16.046875 C14.71618457 17.39622861 15.09754771 18.74896336 15.44921875 20.109375 C17.42921875 20.439375 19.40921875 20.769375 21.44921875 21.109375 C20.12921875 21.439375 18.80921875 21.769375 17.44921875 22.109375 C17.44921875 22.769375 17.44921875 23.429375 17.44921875 24.109375 C15.13921875 24.109375 12.82921875 24.109375 10.44921875 24.109375 C10.44921875 22.129375 10.44921875 20.149375 10.44921875 18.109375 C8.46921875 18.109375 6.48921875 18.109375 4.44921875 18.109375 C4.11921875 20.089375 3.78921875 22.069375 3.44921875 24.109375 C1.13921875 24.109375 -1.17078125 24.109375 -3.55078125 24.109375 C-3.55078125 24.769375 -3.55078125 25.429375 -3.55078125 26.109375 C-1.24078125 26.109375 1.06921875 26.109375 3.44921875 26.109375 C1.94121136 29.58572888 -0.0968002 31.97567402 -2.67578125 34.734375 C-6.67520609 39.07623848 -10.34638167 43.57834524 -13.921875 48.2734375 C-14.45941406 48.87929687 -14.99695313 49.48515625 -15.55078125 50.109375 C-16.21078125 50.109375 -16.87078125 50.109375 -17.55078125 50.109375 C-16.87907319 46.3030293 -15.82331561 42.75730684 -14.55078125 39.109375 C-15.06125 39.28339844 -15.57171875 39.45742187 -16.09765625 39.63671875 C-19.4210219 40.27704876 -22.4332886 39.95249939 -25.80078125 39.671875 C-27.69570312 39.51912109 -27.69570312 39.51912109 -29.62890625 39.36328125 C-30.593125 39.27949219 -31.55734375 39.19570312 -32.55078125 39.109375 C-32.55078125 41.089375 -32.55078125 43.069375 -32.55078125 45.109375 C-36.01578125 45.604375 -36.01578125 45.604375 -39.55078125 46.109375 C-39.55078125 47.429375 -39.55078125 48.749375 -39.55078125 50.109375 C-42.20774193 49.95754868 -43.99312649 49.63613476 -45.9609375 47.77734375 C-50.30622769 42.57059662 -50.9014192 39.50631659 -50.83203125 32.87109375 C-50.32579805 27.900165 -47.72298264 25.35052942 -44.42578125 21.859375 C-41.46546359 20.05744251 -39.79200615 19.76168803 -36.42578125 19.296875 C-33.82115924 18.93206469 -33.82115924 18.93206469 -31.55078125 18.109375 C-29.52939495 14.89314623 -29.52939495 14.89314623 -28.55078125 11.109375 C-23.04684254 0.32165513 -11.33531128 -3.95781159 0 0 Z " fill="#F4F6F7" transform="translate(103.55078125,46.890625)"/>
<path d="M0 0 C7.07581479 4.52959356 11.54010089 9.1722996 14.0625 17.3203125 C14.0625 17.9803125 14.0625 18.6403125 14.0625 19.3203125 C14.72636719 19.41828125 15.39023438 19.51625 16.07421875 19.6171875 C25.36785181 21.19099981 25.36785181 21.19099981 29.0625 25.3203125 C32.76711226 30.71217391 34.15097454 35.83344404 33.0625 42.3203125 C31.35999964 47.98317467 29.24859182 52.18453605 24.0625 55.3203125 C18.70603336 58.01537699 14.67597021 58.73965022 8.72265625 58.61328125 C7.95569931 58.60903641 7.18874237 58.60479156 6.39854431 58.60041809 C3.97365668 58.5837632 1.54963202 58.54613803 -0.875 58.5078125 C-2.52928478 58.49274851 -4.18358273 58.47906312 -5.83789062 58.46679688 C-9.87142103 58.43390327 -13.90431473 58.38221499 -17.9375 58.3203125 C-16.91186523 55.85791016 -16.91186523 55.85791016 -14.9375 53.3203125 C-12.20803929 52.82889584 -10.07629421 52.66787445 -7.34765625 52.71875 C-6.23625526 52.70674057 -6.23625526 52.70674057 -5.10240173 52.69448853 C-2.73437903 52.67139894 -0.36806932 52.68088625 2 52.6953125 C4.36417848 52.69916178 6.72759685 52.69570214 9.09169006 52.67471313 C10.5618894 52.66263901 12.03230193 52.6652693 13.50242615 52.68441772 C17.72008259 52.66142977 19.92538275 52.14544351 23.0625 49.3203125 C23.7225 49.3203125 24.3825 49.3203125 25.0625 49.3203125 C27.62833953 43.70431835 27.86953185 38.40599144 27.0625 32.3203125 C25.43821082 28.80996852 23.12176785 26.87782189 19.6875 25.0703125 C16.93659019 24.21883889 16.93659019 24.21883889 13.5 23.8203125 C10.0625 22.3203125 10.0625 22.3203125 8.90234375 20.1796875 C8.24946419 18.41400512 7.61849111 16.64009329 7.0078125 14.859375 C5.1543482 9.88106179 2.06523279 6.66743888 -2.5 3.9453125 C-8.71160185 1.18460057 -15.40278408 0.9770224 -21.75390625 3.390625 C-27.5612938 6.55829094 -31.21377855 10.28832663 -33.9375 16.3203125 C-34.164375 17.2690625 -34.39125 18.2178125 -34.625 19.1953125 C-35.9375 21.3203125 -35.9375 21.3203125 -38.06640625 21.890625 C-39.83962385 22.18131641 -41.61445529 22.46230276 -43.390625 22.734375 C-47.36728194 23.64925006 -49.14058617 25.38355298 -51.9375 28.3203125 C-54.84062709 33.00535898 -54.55617234 37.9842636 -53.9375 43.3203125 C-51.57295434 48.41318008 -49.05757401 50.2358787 -43.9375 52.3203125 C-40.98188194 52.7915181 -38.05141281 52.91915831 -35.0625 53.0078125 C-33.886875 53.05905273 -33.886875 53.05905273 -32.6875 53.11132812 C-30.77131252 53.19311662 -28.85443285 53.2584071 -26.9375 53.3203125 C-26.4425 55.7953125 -26.4425 55.7953125 -25.9375 58.3203125 C-46.46514843 59.32656978 -46.46514843 59.32656978 -53.9375 53.3203125 C-58.79251921 47.61566493 -60.46795255 41.74664825 -59.9375 34.3203125 C-58.48949297 28.40761713 -55.8754192 23.98782437 -51.25 20.0078125 C-47.12622928 17.90702364 -43.51076729 17.52356882 -38.9375 17.3203125 C-38.751875 16.3303125 -38.56625 15.3403125 -38.375 14.3203125 C-36.37848725 7.51840008 -31.33076709 2.79012773 -25.3125 -0.6796875 C-17.18841526 -4.32748811 -7.89914398 -4.15285878 0 0 Z " fill="#1392DB" transform="translate(107.9375,44.6796875)"/>
<path d="M0 0 C0.495 2.475 0.495 2.475 1 5 C2.98 5 4.96 5 7 5 C7 7.31 7 9.62 7 12 C4.69 12 2.38 12 0 12 C0 13.98 0 15.96 0 18 C0.5775 17.505 1.155 17.01 1.75 16.5 C4 15 4 15 8 15 C8 14.01 8 13.02 8 12 C12.62 12 17.24 12 22 12 C22.495 13.98 22.495 13.98 23 16 C23.99 16 24.98 16 26 16 C26 19.96 26 23.92 26 28 C22.37 28.33 18.74 28.66 15 29 C14.67 30.32 14.34 31.64 14 33 C12.02 33 10.04 33 8 33 C8 31.68 8 30.36 8 29 C7.071875 28.9175 6.14375 28.835 5.1875 28.75 C2 28 2 28 0.125 25.9375 C-0.24625 25.298125 -0.6175 24.65875 -1 24 C-1.33 25.32 -1.66 26.64 -2 28 C-3.32 28 -4.64 28 -6 28 C-6.33 27.34 -6.66 26.68 -7 26 C-7.99 26.66 -8.98 27.32 -10 28 C-12.15625 28.30078125 -12.15625 28.30078125 -14.5 28.3125 C-15.66015625 28.33763672 -15.66015625 28.33763672 -16.84375 28.36328125 C-19.5493061 27.90745386 -20.37852199 27.18676392 -22 25 C-23.65084161 18.17652136 -23.65084161 18.17652136 -21.375 14.0625 C-18.81319624 11.83777568 -17.34009923 11.2783416 -14 11 C-14 9.02 -14 7.04 -14 5 C-16.31 5 -18.62 5 -21 5 C-21 4.01 -21 3.02 -21 2 C-25.62 2 -30.24 2 -35 2 C-35 1.67 -35 1.34 -35 1 C-30.49765878 0.85698401 -25.99529866 0.7145839 -21.49291992 0.57275391 C-19.96133905 0.52442063 -18.42976347 0.47591922 -16.89819336 0.42724609 C-14.69646555 0.35730466 -12.49471939 0.28796838 -10.29296875 0.21875 C-9.60849167 0.19687622 -8.92401459 0.17500244 -8.21879578 0.15246582 C-5.47747521 0.06676924 -2.74289945 0 0 0 Z " fill="#F2F5F6" transform="translate(128,102)"/>
<path d="M0 0 C2.31 0 4.62 0 7 0 C7.16861083 4.01989623 7.32905633 8.04003007 7.48217773 12.06054688 C7.53531137 13.42619434 7.59061539 14.79175926 7.64819336 16.15722656 C7.73090914 18.12801988 7.80498839 20.0991696 7.87890625 22.0703125 C7.9260376 23.25383301 7.97316895 24.43735352 8.02172852 25.65673828 C8.00071103 28.89059772 7.62627785 31.83276319 7 35 C4.69 35 2.38 35 0 35 C0 33.68 0 32.36 0 31 C-2.31 30.67 -4.62 30.34 -7 30 C-7 31.65 -7 33.3 -7 35 C-6.34 35.33 -5.68 35.66 -5 36 C-5.66 37.98 -6.32 39.96 -7 42 C-0.07 42.495 -0.07 42.495 7 43 C7 45.31 7 47.62 7 50 C4.69 50 2.38 50 0 50 C0 52.31 0 54.62 0 57 C-2.31 57 -4.62 57 -7 57 C-7 54.69 -7 52.38 -7 50 C-9.31 50 -11.62 50 -14 50 C-13.979375 50.969375 -13.95875 51.93875 -13.9375 52.9375 C-14 56 -14 56 -15 57 C-16.99958364 57.04080783 -19.00045254 57.04254356 -21 57 C-21.33 54.69 -21.66 52.38 -22 50 C-23.98 50 -25.96 50 -28 50 C-28 47.69 -28 45.38 -28 43 C-22.25 42.875 -22.25 42.875 -20 44 C-20.33 43.34 -20.66 42.68 -21 42 C-21 39.66666667 -21 37.33333333 -21 35 C-21.31674575 33.66262906 -21.64270064 32.32711192 -22 31 C-19.90311466 28.90311466 -15.89871765 29.12406963 -13 29 C-12.01 29.33 -11.02 29.66 -10 30 C-10 26.04 -10 22.08 -10 18 C-10.99 18 -11.98 18 -13 18 C-13 20.97 -13 23.94 -13 27 C-13.33 27 -13.66 27 -14 27 C-14 22.71 -14 18.42 -14 14 C-11.69 14 -9.38 14 -7 14 C-7 15.32 -7 16.64 -7 18 C-3.535 17.505 -3.535 17.505 0 17 C0 11.39 0 5.78 0 0 Z " fill="#F6F7F7" transform="translate(164,100)"/>
<path d="M0 0 C6.35490124 2.1664436 11.4817897 6.28290827 15 12 C16.24129132 14.94806688 17.19985441 17.90469996 18 21 C19.98 21.33 21.96 21.66 24 22 C22.68 22.33 21.36 22.66 20 23 C20 23.66 20 24.32 20 25 C17.69 25 15.38 25 13 25 C13 23.02 13 21.04 13 19 C11.02 19 9.04 19 7 19 C6.67 20.98 6.34 22.96 6 25 C3.69 25 1.38 25 -1 25 C-1 25.66 -1 26.32 -1 27 C1.31 27 3.62 27 6 27 C4.49199261 30.47635388 2.45398105 32.86629902 -0.125 35.625 C-4.12442484 39.96686348 -7.79560042 44.46897024 -11.37109375 49.1640625 C-12.17740234 50.07285156 -12.17740234 50.07285156 -13 51 C-13.66 51 -14.32 51 -15 51 C-14.34496718 46.94180817 -13.05440879 43.46028718 -11.4375 39.6875 C-10.98246094 38.61886719 -10.52742188 37.55023438 -10.05859375 36.44921875 C-9.70925781 35.64097656 -9.35992187 34.83273438 -9 34 C-12.3 34 -15.6 34 -19 34 C-17.07171555 30.1434311 -15.39045036 28.28487249 -12.375 25.3125 C-9.13020822 21.81850821 -7.38390739 19.72130287 -7.4375 14.875 C-7.623125 13.59625 -7.80875 12.3175 -8 11 C-10.31 11 -12.62 11 -15 11 C-15.36655353 3.54674483 -15.36655353 3.54674483 -13.83984375 1.26953125 C-9.84625338 -1.48613089 -4.60416959 -0.6012908 0 0 Z " fill="#ECF1F0" transform="translate(101,46)"/>
<path d="M0 0 C2.31 0 4.62 0 7 0 C7.33 1.65 7.66 3.3 8 5 C9.65 4.67 11.3 4.34 13 4 C13.33 4.66 13.66 5.32 14 6 C14.66 5.34 15.32 4.68 16 4 C18.3828125 3.8046875 18.3828125 3.8046875 21.125 3.875 C22.03507812 3.89304687 22.94515625 3.91109375 23.8828125 3.9296875 C24.58148438 3.95289062 25.28015625 3.97609375 26 4 C26 4.99 26 5.98 26 7 C26.66 7 27.32 7 28 7 C28 6.01 28 5.02 28 4 C28.99 4 29.98 4 31 4 C31.66 6.31 32.32 8.62 33 11 C33.66 11 34.32 11 35 11 C35.66 8.69 36.32 6.38 37 4 C37.99 4 38.98 4 40 4 C38.26375242 10.4188547 36.14819255 16.13784836 33 22 C32.08154297 21.73896484 32.08154297 21.73896484 31.14453125 21.47265625 C28.47052239 20.88330275 26.67486827 21.44014385 24 22 C21.66698014 22.03824623 19.33288492 22.04574284 17 22 C16.34 20.68 15.68 19.36 15 18 C15.94875 18.061875 16.8975 18.12375 17.875 18.1875 C19.421875 18.0946875 19.421875 18.0946875 21 18 C21.66 17.01 22.32 16.02 23 15 C21.576875 15.2784375 21.576875 15.2784375 20.125 15.5625 C17 16 17 16 15 15 C14.67 19.29 14.34 23.58 14 28 C11.69 28 9.38 28 7 28 C7 26.02 7 24.04 7 22 C4.69 21.67 2.38 21.34 0 21 C0 19.68 0 18.36 0 17 C-1.11375 17.12375 -1.11375 17.12375 -2.25 17.25 C-5 17 -5 17 -7.3125 15.375 C-9.50197249 12.2935202 -9.61793165 10.70758991 -9 7 C-7.3125 4.625 -7.3125 4.625 -5 3 C-2.25 2.75 -2.25 2.75 0 3 C0 2.01 0 1.02 0 0 Z " fill="#F7F8F8" transform="translate(64,114)"/>
<path d="M0 0 C4.62 0 9.24 0 14 0 C14.33 1.32 14.66 2.64 15 4 C15.99 4 16.98 4 18 4 C18 7.96 18 11.92 18 16 C14.37 16.33 10.74 16.66 7 17 C6.67 18.32 6.34 19.64 6 21 C4.02 21 2.04 21 0 21 C0 19.68 0 18.36 0 17 C-0.94875 16.896875 -1.8975 16.79375 -2.875 16.6875 C-6 16 -6 16 -8 13 C-8.47149618 9.30661324 -8.48544427 7.65881723 -6.25 4.625 C-4 3 -4 3 0 3 C0 2.01 0 1.02 0 0 Z " fill="#F5F7F9" transform="translate(136,114)"/>
<path d="M0 0 C1.4540625 0.0309375 1.4540625 0.0309375 2.9375 0.0625 C3.2675 2.0425 3.5975 4.0225 3.9375 6.0625 C5.05125 6.145 6.165 6.2275 7.3125 6.3125 C10.9375 7.0625 10.9375 7.0625 12.375 9.125 C12.560625 9.764375 12.74625 10.40375 12.9375 11.0625 C14.360625 11.000625 14.360625 11.000625 15.8125 10.9375 C18.9375 11.0625 18.9375 11.0625 20.9375 13.0625 C21.1328125 15.4453125 21.1328125 15.4453125 21.0625 18.1875 C21.03542969 19.55261719 21.03542969 19.55261719 21.0078125 20.9453125 C20.98460938 21.64398438 20.96140625 22.34265625 20.9375 23.0625 C19.9475 23.0625 18.9575 23.0625 17.9375 23.0625 C17.6075 20.0925 17.2775 17.1225 16.9375 14.0625 C15.6175 14.3925 14.2975 14.7225 12.9375 15.0625 C12.6075 17.7025 12.2775 20.3425 11.9375 23.0625 C10.9475 23.0625 9.9575 23.0625 8.9375 23.0625 C8.6075 20.4225 8.2775 17.7825 7.9375 15.0625 C7.6075 17.7025 7.2775 20.3425 6.9375 23.0625 C5.9475 23.0625 4.9575 23.0625 3.9375 23.0625 C3.793125 21.928125 3.64875 20.79375 3.5 19.625 C3.32578522 16.25472799 3.32578522 16.25472799 1.9375 15.0625 C1.6075 15.7225 1.2775 16.3825 0.9375 17.0625 C-1.3725 17.0625 -3.6825 17.0625 -6.0625 17.0625 C-6.0625 19.0425 -6.0625 21.0225 -6.0625 23.0625 C-7.0525 23.0625 -8.0425 23.0625 -9.0625 23.0625 C-9.0625 17.4525 -9.0625 11.8425 -9.0625 6.0625 C-7.4125 6.0625 -5.7625 6.0625 -4.0625 6.0625 C-4.083125 5.258125 -4.10375 4.45375 -4.125 3.625 C-4.03366838 -0.11959638 -3.80090148 0.07756942 0 0 Z " fill="#F1F2F3" transform="translate(32.0625,106.9375)"/>
<path d="M0 0 C1.4540625 0.0309375 1.4540625 0.0309375 2.9375 0.0625 C2.9375 2.3725 2.9375 4.6825 2.9375 7.0625 C0.9575 7.3925 -1.0225 7.7225 -3.0625 8.0625 C-3.0625 10.0425 -3.0625 12.0225 -3.0625 14.0625 C-0.0925 14.5575 -0.0925 14.5575 2.9375 15.0625 C2.9375 17.3725 2.9375 19.6825 2.9375 22.0625 C0.6275 22.0625 -1.6825 22.0625 -4.0625 22.0625 C-4.0625 24.3725 -4.0625 26.6825 -4.0625 29.0625 C-1.7525 29.0625 0.5575 29.0625 2.9375 29.0625 C2.9375 31.0425 2.9375 33.0225 2.9375 35.0625 C2.25042969 34.71316406 1.56335938 34.36382812 0.85546875 34.00390625 C-0.04558594 33.54886719 -0.94664063 33.09382813 -1.875 32.625 C-3.21498047 31.94630859 -3.21498047 31.94630859 -4.58203125 31.25390625 C-11.13037003 28.10864117 -18.97838261 27.78307061 -25.91796875 29.95703125 C-28.03043669 30.9074739 -30.05839745 31.90250266 -32.0625 33.0625 C-32.3925 32.0725 -32.7225 31.0825 -33.0625 30.0625 C-32.0625 29.0625 -32.0625 29.0625 -29 29 C-27.5459375 29.0309375 -27.5459375 29.0309375 -26.0625 29.0625 C-25.7325 26.7525 -25.4025 24.4425 -25.0625 22.0625 C-21.5975 21.5675 -21.5975 21.5675 -18.0625 21.0625 C-18.0625 23.0425 -18.0625 25.0225 -18.0625 27.0625 C-15.7525 27.0625 -13.4425 27.0625 -11.0625 27.0625 C-11.07035522 26.20700562 -11.07035522 26.20700562 -11.07836914 25.33422852 C-11.09908221 22.76449677 -11.1121419 20.19478253 -11.125 17.625 C-11.13337891 16.72716797 -11.14175781 15.82933594 -11.15039062 14.90429688 C-11.15522461 13.62329102 -11.15522461 13.62329102 -11.16015625 12.31640625 C-11.16801147 11.13026733 -11.16801147 11.13026733 -11.17602539 9.92016602 C-11.0625 8.0625 -11.0625 8.0625 -10.0625 7.0625 C-8.06291636 7.02169217 -6.06204746 7.01995644 -4.0625 7.0625 C-4.083125 6.093125 -4.10375 5.12375 -4.125 4.125 C-4.0425 0.0825 -4.0425 0.0825 0 0 Z " fill="#F2F4F4" transform="translate(111.0625,13.9375)"/>
<path d="M0 0 C2.31 0 4.62 0 7 0 C7.16861083 4.01989623 7.32905633 8.04003007 7.48217773 12.06054688 C7.53531137 13.42619434 7.59061539 14.79175926 7.64819336 16.15722656 C7.73090914 18.12801988 7.80498839 20.0991696 7.87890625 22.0703125 C7.9260376 23.25383301 7.97316895 24.43735352 8.02172852 25.65673828 C8.00071103 28.89059772 7.62627785 31.83276319 7 35 C4.69 35 2.38 35 0 35 C0 33.68 0 32.36 0 31 C-0.763125 31.0825 -1.52625 31.165 -2.3125 31.25 C-5 31 -5 31 -6.8125 29.375 C-8.34040738 26.31918523 -8.42256988 24.38055907 -8 21 C-6.8125 18.625 -6.8125 18.625 -5 17 C-3.35 17 -1.7 17 0 17 C0 11.39 0 5.78 0 0 Z " fill="#F1F5F7" transform="translate(164,100)"/>
<path d="M0 0 C0.90105469 0.02707031 1.80210938 0.05414063 2.73046875 0.08203125 C3.76107422 0.13423828 3.76107422 0.13423828 4.8125 0.1875 C4.8125 1.1775 4.8125 2.1675 4.8125 3.1875 C5.4725 3.1875 6.1325 3.1875 6.8125 3.1875 C6.8125 2.1975 6.8125 1.2075 6.8125 0.1875 C7.8025 0.1875 8.7925 0.1875 9.8125 0.1875 C10.4725 2.4975 11.1325 4.8075 11.8125 7.1875 C12.4725 7.1875 13.1325 7.1875 13.8125 7.1875 C14.4725 4.8775 15.1325 2.5675 15.8125 0.1875 C16.8025 0.1875 17.7925 0.1875 18.8125 0.1875 C17.07625242 6.6063547 14.96069255 12.32534836 11.8125 18.1875 C10.89404297 17.92646484 10.89404297 17.92646484 9.95703125 17.66015625 C7.28302239 17.07080275 5.48736827 17.62764385 2.8125 18.1875 C0.47948014 18.22574623 -1.85461508 18.23324284 -4.1875 18.1875 C-4.8475 16.8675 -5.5075 15.5475 -6.1875 14.1875 C-5.23875 14.249375 -4.29 14.31125 -3.3125 14.375 C-1.765625 14.2821875 -1.765625 14.2821875 -0.1875 14.1875 C0.4725 13.1975 1.1325 12.2075 1.8125 11.1875 C0.905 11.435 -0.0025 11.6825 -0.9375 11.9375 C-4.1875 12.1875 -4.1875 12.1875 -6.5625 10.5625 C-8.47859393 7.76205503 -8.78386329 6.5100955 -8.1875 3.1875 C-5.79964426 -0.06866692 -3.91281916 -0.1524475 0 0 Z " fill="#556876" transform="translate(85.1875,117.8125)"/>
<path d="M0 0 C0.33 0.66 0.66 1.32 1 2 C0.09239638 4.59732225 -0.87067892 7.09450975 -1.9375 9.625 C-2.22818359 10.33140625 -2.51886719 11.0378125 -2.81835938 11.765625 C-3.53867488 13.51327573 -4.26845694 15.25701915 -5 17 C-1.7 17 1.6 17 5 17 C0.77825468 22.98080587 -3.92998191 28.29508421 -8.94824219 33.60620117 C-11.80547688 36.55981574 -11.80547688 36.55981574 -14 40 C-14.66 40 -15.32 40 -16 40 C-15.34496718 35.94180817 -14.05440879 32.46028718 -12.4375 28.6875 C-11.98246094 27.61886719 -11.52742188 26.55023438 -11.05859375 25.44921875 C-10.70925781 24.64097656 -10.35992187 23.83273438 -10 23 C-13.3 23 -16.6 23 -20 23 C-18.26802082 19.53604163 -16.97206725 17.68410736 -14.375 14.9609375 C-13.31539063 13.84332031 -13.31539063 13.84332031 -12.234375 12.703125 C-11.49703125 11.93484375 -10.7596875 11.1665625 -10 10.375 C-9.26265625 9.59898438 -8.5253125 8.82296875 -7.765625 8.0234375 C-5.19921592 5.32589803 -2.63284691 2.63284691 0 0 Z " fill="#30C054" transform="translate(102,57)"/>
<path d="M0 0 C0.66 0 1.32 0 2 0 C2 5.28 2 10.56 2 16 C2.99 16 3.98 16 5 16 C5 14.02 5 12.04 5 10 C5.33 10 5.66 10 6 10 C6.33 13.63 6.66 17.26 7 21 C4.69 21 2.38 21 0 21 C0 18.69 0 16.38 0 14 C-1.98 14.33 -3.96 14.66 -6 15 C-6.33 16.98 -6.66 18.96 -7 21 C-8.98 21.33 -10.96 21.66 -13 22 C-13.33 23.98 -13.66 25.96 -14 28 C-16.31 28 -18.62 28 -21 28 C-21 25.69 -21 23.38 -21 21 C-18.69 21 -16.38 21 -14 21 C-14.020625 20.030625 -14.04125 19.06125 -14.0625 18.0625 C-14 15 -14 15 -13 14 C-11.00041636 13.95919217 -8.99954746 13.95745644 -7 14 C-7.020625 13.030625 -7.04125 12.06125 -7.0625 11.0625 C-7 8 -7 8 -6 7 C-4.00041636 6.95919217 -1.99954746 6.95745644 0 7 C0 4.69 0 2.38 0 0 Z " fill="#F2F3F3" transform="translate(21,114)"/>
<path d="M0 0 C2.31 0 4.62 0 7 0 C7.33 1.65 7.66 3.3 8 5 C9.65 4.67 11.3 4.34 13 4 C13 4.99 13 5.98 13 7 C11.68 7.33 10.36 7.66 9 8 C8.67 10.64 8.34 13.28 8 16 C7.01 16 6.02 16 5 16 C4.67 14.35 4.34 12.7 4 11 C0.7 11 -2.6 11 -6 11 C-5.67 11.66 -5.34 12.32 -5 13 C-2.69 13 -0.38 13 2 13 C1.67 13.99 1.34 14.98 1 16 C-5.3782235 16.36103152 -5.3782235 16.36103152 -7.9375 14.875 C-9.52990283 12.06487736 -9.45319325 10.17235276 -9 7 C-7.3125 4.625 -7.3125 4.625 -5 3 C-2.25 2.75 -2.25 2.75 0 3 C0 2.01 0 1.02 0 0 Z " fill="#4B5F6E" transform="translate(64,114)"/>
<path d="M0 0 C0.99 0 1.98 0 3 0 C3.66 2.31 4.32 4.62 5 7 C5.66 7 6.32 7 7 7 C7.66 4.69 8.32 2.38 9 0 C9.99 0 10.98 0 12 0 C10.26375242 6.4188547 8.14819255 12.13784836 5 18 C4.08154297 17.73896484 4.08154297 17.73896484 3.14453125 17.47265625 C0.47052239 16.88330275 -1.32513173 17.44014385 -4 18 C-6.33301986 18.03824623 -8.66711508 18.04574284 -11 18 C-11 17.67 -11 17.34 -11 17 C-9.865625 16.71125 -8.73125 16.4225 -7.5625 16.125 C-6.386875 15.75375 -5.21125 15.3825 -4 15 C-2.78306124 12.56612247 -2.68040104 10.58161154 -2.4375 7.875 C-2.35371094 6.96492188 -2.26992187 6.05484375 -2.18359375 5.1171875 C-2.12300781 4.41851562 -2.06242187 3.71984375 -2 3 C-1.34 3 -0.68 3 0 3 C0 2.01 0 1.02 0 0 Z " fill="#ECEEEF" transform="translate(92,118)"/>
<path d="M0 0 C2.31 0.33 4.62 0.66 7 1 C8.4375 3.0625 8.4375 3.0625 9 5 C10.423125 4.938125 10.423125 4.938125 11.875 4.875 C15 5 15 5 17 7 C17.1953125 9.3828125 17.1953125 9.3828125 17.125 12.125 C17.10695313 13.03507812 17.08890625 13.94515625 17.0703125 14.8828125 C17.04710938 15.58148438 17.02390625 16.28015625 17 17 C16.01 17 15.02 17 14 17 C13.67 14.03 13.34 11.06 13 8 C11.68 8.33 10.36 8.66 9 9 C8.67 11.64 8.34 14.28 8 17 C7.01 17 6.02 17 5 17 C4.67 14.36 4.34 11.72 4 9 C3.67 11.64 3.34 14.28 3 17 C2.01 17 1.02 17 0 17 C0 11.39 0 5.78 0 0 Z " fill="#BEC4C9" transform="translate(36,113)"/>
<path d="M0 0 C2.31 0 4.62 0 7 0 C7 2.31 7 4.62 7 7 C5.02 7.33 3.04 7.66 1 8 C0.67 9.98 0.34 11.96 0 14 C-1.98 14.33 -3.96 14.66 -6 15 C-6.33 16.98 -6.66 18.96 -7 21 C-9.31 21 -11.62 21 -14 21 C-14 18.69 -14 16.38 -14 14 C-11.69 14 -9.38 14 -7 14 C-7.020625 13.030625 -7.04125 12.06125 -7.0625 11.0625 C-7 8 -7 8 -6 7 C-4.00041636 6.95919217 -1.99954746 6.95745644 0 7 C0 4.69 0 2.38 0 0 Z " fill="#FEFEFE" transform="translate(171,0)"/>
<path d="M0 0 C0.66 0 1.32 0 2 0 C2 5.61 2 11.22 2 17 C0.39125 17.061875 -1.2175 17.12375 -2.875 17.1875 C-3.77992188 17.22230469 -4.68484375 17.25710937 -5.6171875 17.29296875 C-6.79667969 17.14794922 -6.79667969 17.14794922 -8 17 C-10.31282587 13.53076119 -10.42478586 12.07794425 -10 8 C-8.9375 6.0625 -8.9375 6.0625 -7 5 C-3.3125 5.3125 -3.3125 5.3125 0 6 C0 4.02 0 2.04 0 0 Z " fill="#1692DB" transform="translate(166,113)"/>
<path d="M0 0 C1.875 1.125 1.875 1.125 3 3 C3.42478586 7.07794425 3.31282587 8.53076119 1 12 C-0.875 12.3984375 -0.875 12.3984375 -3 12.375 C-3.70125 12.38273438 -4.4025 12.39046875 -5.125 12.3984375 C-7 12 -7 12 -9 9 C-9.32502803 5.87973093 -9.51151479 3.85252465 -7.875 1.125 C-5.11909116 -0.52854531 -3.14924548 -0.39365568 0 0 Z " fill="#1E96DC" transform="translate(137,118)"/>
<path d="M0 0 C4.29 0 8.58 0 13 0 C13 4.95 13 9.9 13 15 C10.03 14.505 10.03 14.505 7 14 C5.13671875 11.34765625 5.13671875 11.34765625 3.6875 8.0625 C3.19636719 6.98097656 2.70523438 5.89945313 2.19921875 4.78515625 C1.80347656 3.86605469 1.40773438 2.94695313 1 2 C0.67 1.34 0.34 0.68 0 0 Z " fill="#F1F5F7" transform="translate(115,50)"/>
<path d="M0 0 C2.31 0 4.62 0 7 0 C7 1.32 7 2.64 7 4 C7.66 4.33 8.32 4.66 9 5 C8.34 5.66 7.68 6.32 7 7 C6.78323592 10.39597063 6.91926148 12.75778445 8 16 C7.5625 18.6875 7.5625 18.6875 7 21 C4.69 21 2.38 21 0 21 C0 19.02 0 17.04 0 15 C1.32 15.33 2.64 15.66 4 16 C4 12.04 4 8.08 4 4 C3.01 4 2.02 4 1 4 C1 6.97 1 9.94 1 13 C0.67 13 0.34 13 0 13 C0 8.71 0 4.42 0 0 Z " fill="#E8EFF3" transform="translate(150,114)"/>
<path d="M0 0 C2.31 0 4.62 0 7 0 C7 2.31 7 4.62 7 7 C5.02 7.33 3.04 7.66 1 8 C0.34 10.31 -0.32 12.62 -1 15 C-3.31 15 -5.62 15 -8 15 C-7.125 8.125 -7.125 8.125 -6 7 C-4.00041636 6.95919217 -1.99954746 6.95745644 0 7 C0 4.69 0 2.38 0 0 Z " fill="#FDFDFD" transform="translate(71,14)"/>
<path d="M0 0 C2.31 0 4.62 0 7 0 C7 2.31 7 4.62 7 7 C5.02 7.33 3.04 7.66 1 8 C0.67 10.31 0.34 12.62 0 15 C-1.99954746 15.04254356 -4.00041636 15.04080783 -6 15 C-7 14 -7 14 -7.125 11 C-7 8 -7 8 -6 7 C-4.00041636 6.95919217 -1.99954746 6.95745644 0 7 C0 4.69 0 2.38 0 0 Z " fill="#FDFDFD" transform="translate(114,14)"/>
<path d="M0 0 C2.3125 1.375 2.3125 1.375 4 3 C4 3.66 4 4.32 4 5 C1.03 4.67 -1.94 4.34 -5 4 C-7.35014158 6.837578 -7.35014158 6.837578 -6.6875 10.125 C-6.29355679 12.88086422 -6.29355679 12.88086422 -5 14 C-1.27775401 14.29386153 -0.22213757 14.14809171 3 12 C3 13.32 3 14.64 3 16 C1.42077594 17.57922406 -0.19443874 17.207659 -2.375 17.25 C-3.16648437 17.27578125 -3.95796875 17.3015625 -4.7734375 17.328125 C-7 17 -7 17 -8.73046875 15.7265625 C-10.87647847 12.80798928 -11.24736839 9.52499949 -11 6 C-8.02147983 1.17274318 -5.66299185 -0.53933256 0 0 Z " fill="#1A94DB" transform="translate(116,113)"/>
<path d="M0 0 C2.31 0 4.62 0 7 0 C7 2.31 7 4.62 7 7 C5.02 7.33 3.04 7.66 1 8 C0.67 9.98 0.34 11.96 0 14 C-2.31 14 -4.62 14 -7 14 C-7 11.69 -7 9.38 -7 7 C-4.69 7 -2.38 7 0 7 C0 4.69 0 2.38 0 0 Z " fill="#F2F2F2" transform="translate(7,14)"/>
<path d="M0 0 C2.31 0 4.62 0 7 0 C7.33 1.65 7.66 3.3 8 5 C9.65 4.67 11.3 4.34 13 4 C13 4.99 13 5.98 13 7 C11.68 7.33 10.36 7.66 9 8 C8.67 10.64 8.34 13.28 8 16 C7.01 16 6.02 16 5 16 C4.67 14.35 4.34 12.7 4 11 C3.67 11 3.34 11 3 11 C2.67 9.35 2.34 7.7 2 6 C-0.31 5.34 -2.62 4.68 -5 4 C-5 3.67 -5 3.34 -5 3 C-3.35 3 -1.7 3 0 3 C0 2.01 0 1.02 0 0 Z " fill="#E1E3E5" transform="translate(64,114)"/>
<path d="M0 0 C2.31 0 4.62 0 7 0 C7 2.31 7 4.62 7 7 C5.02 7.33 3.04 7.66 1 8 C0.67 9.98 0.34 11.96 0 14 C-2.31 14 -4.62 14 -7 14 C-7.04254356 12.00045254 -7.04080783 9.99958364 -7 8 C-6 7 -6 7 -2.9375 6.9375 C-1.4834375 6.9684375 -1.4834375 6.9684375 0 7 C0 4.69 0 2.38 0 0 Z " fill="#F2F2F2" transform="translate(164,57)"/>
<path d="M0 0 C2.31 0 4.62 0 7 0 C7 2.31 7 4.62 7 7 C5.02 7.33 3.04 7.66 1 8 C0.67 9.98 0.34 11.96 0 14 C-2.31 14 -4.62 14 -7 14 C-7.04254356 12.00045254 -7.04080783 9.99958364 -7 8 C-6 7 -6 7 -2.9375 6.9375 C-1.4834375 6.9684375 -1.4834375 6.9684375 0 7 C0 4.69 0 2.38 0 0 Z " fill="#F2F2F2" transform="translate(164,0)"/>
<path d="M0 0 C2.31 0 4.62 0 7 0 C7 2.31 7 4.62 7 7 C5.02 7.33 3.04 7.66 1 8 C0.67 9.98 0.34 11.96 0 14 C-2.31 14 -4.62 14 -7 14 C-7.04254356 12.00045254 -7.04080783 9.99958364 -7 8 C-6 7 -6 7 -2.9375 6.9375 C-1.4834375 6.9684375 -1.4834375 6.9684375 0 7 C0 4.69 0 2.38 0 0 Z " fill="#F2F2F2" transform="translate(107,0)"/>
<path d="M0 0 C2.31 0 4.62 0 7 0 C7 2.31 7 4.62 7 7 C5.02 7.33 3.04 7.66 1 8 C0.67 9.98 0.34 11.96 0 14 C-2.31 14 -4.62 14 -7 14 C-7.04254356 12.00045254 -7.04080783 9.99958364 -7 8 C-6 7 -6 7 -2.9375 6.9375 C-1.4834375 6.9684375 -1.4834375 6.9684375 0 7 C0 4.69 0 2.38 0 0 Z " fill="#FEFEFE" transform="translate(14,0)"/>
<path d="M0 0 C3.63 0 7.26 0 11 0 C11 0.66 11 1.32 11 2 C8.36 2 5.72 2 3 2 C3 3.65 3 5.3 3 7 C5.31 7 7.62 7 10 7 C10 7.99 10 8.98 10 10 C7.69 10 5.38 10 3 10 C3 11.98 3 13.96 3 16 C2.01 16 1.02 16 0 16 C0 10.72 0 5.44 0 0 Z " fill="#4E6270" transform="translate(23,114)"/>
<path d="M0 0 C2 2 2 2 2.125 5.125 C2.08375 6.07375 2.0425 7.0225 2 8 C-0.49064888 8.68707555 -2.37886292 9 -5 9 C-4.979375 9.969375 -4.95875 10.93875 -4.9375 11.9375 C-5 15 -5 15 -6 16 C-7.99958364 16.04080783 -10.00045254 16.04254356 -12 16 C-12.33 14.68 -12.66 13.36 -13 12 C-12.01 12.33 -11.02 12.66 -10 13 C-9.63261719 12.15695313 -9.63261719 12.15695313 -9.2578125 11.296875 C-7.77073461 8.58134146 -5.95937218 6.53608562 -3.875 4.25 C-3.15054688 3.45078125 -2.42609375 2.6515625 -1.6796875 1.828125 C-0.84824219 0.92320313 -0.84824219 0.92320313 0 0 Z " fill="#EBF1ED" transform="translate(98,84)"/>
<path d="M0 0 C0.33 0 0.66 0 1 0 C1 2.97 1 5.94 1 9 C1.99 9.33 2.98 9.66 4 10 C3.67 11.32 3.34 12.64 3 14 C0.69 14 -1.62 14 -4 14 C-4 12.68 -4 11.36 -4 10 C-5.65 10 -7.3 10 -9 10 C-9 9.67 -9 9.34 -9 9 C-7.5459375 8.814375 -7.5459375 8.814375 -6.0625 8.625 C-5.051875 8.41875 -4.04125 8.2125 -3 8 C-2.67 7.34 -2.34 6.68 -2 6 C-4.31 6.33 -6.62 6.66 -9 7 C-9.33 6.01 -9.66 5.02 -10 4 C-6.7 4 -3.4 4 0 4 C0 2.68 0 1.36 0 0 Z " fill="#E9EBEC" transform="translate(68,121)"/>
<path d="M0 0 C2.80156867 0.4002241 5.05765494 1.20135654 7.625 2.375 C7.625 3.365 7.625 4.355 7.625 5.375 C5.645 5.705 3.665 6.035 1.625 6.375 C1.295 8.025 0.965 9.675 0.625 11.375 C-1.025 11.045 -2.675 10.715 -4.375 10.375 C-5.70227273 5.06590909 -5.70227273 5.06590909 -4.25 2 C-2.375 0.375 -2.375 0.375 0 0 Z " fill="#F7FAFC" transform="translate(113.375,115.625)"/>
<path d="M0 0 C0.99 0 1.98 0 3 0 C3.66 2.31 4.32 4.62 5 7 C5.66 7 6.32 7 7 7 C7.66 4.69 8.32 2.38 9 0 C9.99 0 10.98 0 12 0 C10.33846988 5.85659906 8.52958084 11.4590134 6 17 C5.01 17 4.02 17 3 17 C3.061875 15.989375 3.12375 14.97875 3.1875 13.9375 C2.97265995 9.42585886 1.87000863 7.05168537 0 3 C0 2.01 0 1.02 0 0 Z " fill="#4D6271" transform="translate(92,118)"/>
<path d="M0 0 C1.08667969 0.02707031 2.17335938 0.05414063 3.29296875 0.08203125 C4.54013672 0.13423828 4.54013672 0.13423828 5.8125 0.1875 C5.8125 0.5175 5.8125 0.8475 5.8125 1.1875 C3.1725 1.1875 0.5325 1.1875 -2.1875 1.1875 C-2.1875 4.4875 -2.1875 7.7875 -2.1875 11.1875 C-4.4975 11.1875 -6.8075 11.1875 -9.1875 11.1875 C-9.55298223 3.75602792 -9.55298223 3.75602792 -8.0625 1.4375 C-5.3470129 -0.37282474 -3.22488715 -0.10402862 0 0 Z " fill="#E5EEF3" transform="translate(95.1875,45.8125)"/>
<path d="M0 0 C0.33 0.99 0.66 1.98 1 3 C2.98 3 4.96 3 7 3 C6.67 5.31 6.34 7.62 6 10 C3.69 10 1.38 10 -1 10 C-1 10.66 -1 11.32 -1 12 C1.31 12 3.62 12 6 12 C6 12.33 6 12.66 6 13 C2.7 13 -0.6 13 -4 13 C-3.27991594 8.39146203 -1.68704061 4.32762591 0 0 Z " fill="#E2EFE5" transform="translate(101,61)"/>
<path d="M0 0 C6.8359375 -0.1953125 6.8359375 -0.1953125 9 0 C11 2 11 2 11.1953125 4.3828125 C11.17210937 5.28773437 11.14890625 6.19265625 11.125 7.125 C11.10695313 8.03507812 11.08890625 8.94515625 11.0703125 9.8828125 C11.04710937 10.58148438 11.02390625 11.28015625 11 12 C10.01 12 9.02 12 8 12 C7.67 9.03 7.34 6.06 7 3 C5.68 3.33 4.36 3.66 3 4 C2.67 6.64 2.34 9.28 2 12 C1.34 12 0.68 12 0 12 C0 8.04 0 4.08 0 0 Z " fill="#4D616F" transform="translate(42,118)"/>
<path d="M0 0 C0.99 0 1.98 0 3 0 C3 3.96 3 7.92 3 12 C-4.71484375 12.09765625 -4.71484375 12.09765625 -7 12 C-8 11 -8 11 -8.09765625 8.71484375 C-8.08605469 7.79832031 -8.07445312 6.88179688 -8.0625 5.9375 C-8.05347656 5.01839844 -8.04445312 4.09929687 -8.03515625 3.15234375 C-8.02355469 2.44207031 -8.01195312 1.73179688 -8 1 C-7.34 1 -6.68 1 -6 1 C-5.67 3.64 -5.34 6.28 -5 9 C-3.68 9 -2.36 9 -1 9 C-0.67 6.03 -0.34 3.06 0 0 Z " fill="#1B94DC" transform="translate(151,118)"/>
<path d="M0 0 C1.32 0 2.64 0 4 0 C4 2.97 4 5.94 4 9 C3.67 9 3.34 9 3 9 C3 6.36 3 3.72 3 1 C2.34 1 1.68 1 1 1 C1.09539062 1.73605469 1.19078125 2.47210938 1.2890625 3.23046875 C1.39992187 4.20628906 1.51078125 5.18210937 1.625 6.1875 C1.74101562 7.15042969 1.85703125 8.11335938 1.9765625 9.10546875 C2.00194942 12.24075323 1.34359283 14.19486535 0 17 C-1.98 17 -3.96 17 -6 17 C-6 15.68 -6 14.36 -6 13 C-7.32 12.67 -8.64 12.34 -10 12 C-8.576875 11.814375 -8.576875 11.814375 -7.125 11.625 C-3.91332809 11.28312823 -3.91332809 11.28312823 -2 9 C-1.34 9.33 -0.68 9.66 0 10 C0 6.7 0 3.4 0 0 Z " fill="#C8E0EE" transform="translate(142,118)"/>
<path d="M0 0 C0 1.98 0 3.96 0 6 C1.65 6 3.3 6 5 6 C5 6.33 5 6.66 5 7 C4.38253906 7.02578125 3.76507813 7.0515625 3.12890625 7.078125 C-3.31215364 7.50948974 -8.28233058 9.03067892 -14 12 C-14.33 11.01 -14.66 10.02 -15 9 C-14 8 -14 8 -10.9375 7.9375 C-9.4834375 7.9684375 -9.4834375 7.9684375 -8 8 C-7.67 5.69 -7.34 3.38 -7 1 C-1.125 0 -1.125 0 0 0 Z " fill="#E3ECF1" transform="translate(93,35)"/>
<path d="M0 0 C1.134375 0.020625 2.26875 0.04125 3.4375 0.0625 C3.1075 2.3725 2.7775 4.6825 2.4375 7.0625 C-2.435761 8.6537689 -6.37040596 9.27442221 -11.5625 9.0625 C-11.5625 8.4025 -11.5625 7.7425 -11.5625 7.0625 C-9.2525 7.0625 -6.9425 7.0625 -4.5625 7.0625 C-4.583125 6.093125 -4.60375 5.12375 -4.625 4.125 C-4.53542298 -0.264274 -4.48106193 0.07861512 0 0 Z " fill="#FDFDFD" transform="translate(111.5625,63.9375)"/>
<path d="M0 0 C0.33 0 0.66 0 1 0 C1 4.95 1 9.9 1 15 C1.99 15.33 2.98 15.66 4 16 C3.67 17.98 3.34 19.96 3 22 C0.69 22 -1.62 22 -4 22 C-4 20.68 -4 19.36 -4 18 C-5.65 18 -7.3 18 -9 18 C-9 17.67 -9 17.34 -9 17 C-2.25 15.875 -2.25 15.875 0 17 C0 11.39 0 5.78 0 0 Z " fill="#D0E3EF" transform="translate(168,113)"/>
<path d="M0 0 C0.33 0 0.66 0 1 0 C1 5.28 1 10.56 1 16 C1.99 16 2.98 16 4 16 C4 14.02 4 12.04 4 10 C4.33 10 4.66 10 5 10 C5.33 13.63 5.66 17.26 6 21 C3.69 21 1.38 21 -1 21 C-0.67 14.07 -0.34 7.14 0 0 Z " fill="#E9EAEB" transform="translate(22,114)"/>
<path d="M0 0 C2.31 0 4.62 0 7 0 C8.23076923 6.4 8.23076923 6.4 7.0625 9.4375 C6.711875 9.953125 6.36125 10.46875 6 11 C5.34 11 4.68 11 4 11 C2.5393715 8.35261084 2 7.10551666 2 4 C1.01 3.67 0.02 3.34 -1 3 C-0.67 2.01 -0.34 1.02 0 0 Z " fill="#ECEDEE" transform="translate(93,114)"/>
<path d="M0 0 C1.98 0 3.96 0 6 0 C6 0.99 6 1.98 6 3 C6.99 3.33 7.98 3.66 9 4 C8.01 4 7.02 4 6 4 C6 7.3 6 10.6 6 14 C5.34 14 4.68 14 4 14 C3.67 11.03 3.34 8.06 3 5 C0.69 4.67 -1.62 4.34 -4 4 C-2.68 3.67 -1.36 3.34 0 3 C0 2.01 0 1.02 0 0 Z " fill="#EAF0F4" transform="translate(136,114)"/>
<path d="M0 0 C2.31 0 4.62 0 7 0 C7.33 1.65 7.66 3.3 8 5 C6.02 5.99 6.02 5.99 4 7 C4 9.97 4 12.94 4 16 C3.67 16 3.34 16 3 16 C2.67 12.7 2.34 9.4 2 6 C0.02 5.34 -1.96 4.68 -4 4 C-2.68 3.67 -1.36 3.34 0 3 C0 2.01 0 1.02 0 0 Z " fill="#EDEEEF" transform="translate(50,114)"/>
<path d="M0 0 C0.33 0 0.66 0 1 0 C1 3.96 1 7.92 1 12 C0.34 11.01 -0.32 10.02 -1 9 C-4.06556598 8.26656572 -4.06556598 8.26656572 -7 8 C-7.042721 6.33388095 -7.04063832 4.66617115 -7 3 C-6 2 -6 2 -2.9375 1.9375 C-1.4834375 1.9684375 -1.4834375 1.9684375 0 2 C0 1.34 0 0.68 0 0 Z " fill="#EDF1F3" transform="translate(135,77)"/>
<path d="M0 0 C1.4540625 0.0309375 1.4540625 0.0309375 2.9375 0.0625 C2.9375 2.3725 2.9375 4.6825 2.9375 7.0625 C-1.0225 7.0625 -4.9825 7.0625 -9.0625 7.0625 C-9.0625 6.7325 -9.0625 6.4025 -9.0625 6.0625 C-7.4125 6.0625 -5.7625 6.0625 -4.0625 6.0625 C-4.083125 5.258125 -4.10375 4.45375 -4.125 3.625 C-4.03366838 -0.11959638 -3.80090148 0.07756942 0 0 Z " fill="#E1E3E5" transform="translate(32.0625,106.9375)"/>
<path d="M0 0 C0.99 0 1.98 0 3 0 C3 5.61 3 11.22 3 17 C2.01 17 1.02 17 0 17 C0 11.39 0 5.78 0 0 Z " fill="#2297DC" transform="translate(122,113)"/>
<path d="M0 0 C2.64 0 5.28 0 8 0 C7.67 2.31 7.34 4.62 7 7 C4.69 7 2.38 7 0 7 C0 4.69 0 2.38 0 0 Z " fill="#FDFDFD" transform="translate(100,185)"/>
<path d="M0 0 C2.64 0 5.28 0 8 0 C7.67 2.31 7.34 4.62 7 7 C4.69 7 2.38 7 0 7 C0 4.69 0 2.38 0 0 Z " fill="#F2F2F2" transform="translate(0,121)"/>
<path d="M0 0 C0.33 0 0.66 0 1 0 C1.05384521 2.29141286 1.09272087 4.58318188 1.125 6.875 C1.14820312 8.15117188 1.17140625 9.42734375 1.1953125 10.7421875 C1 14 1 14 -1 16 C-4.625 16.125 -4.625 16.125 -8 16 C-8.33 15.01 -8.66 14.02 -9 13 C-7.02 13 -5.04 13 -3 13 C-2.20752526 10.28294375 -1.81714873 7.61649746 -1.5 4.8125 C-1 1 -1 1 0 0 Z " fill="#3B5162" transform="translate(88,119)"/>
<path d="M0 0 C2.31 0 4.62 0 7 0 C7 2.31 7 4.62 7 7 C4.69 7.33 2.38 7.66 0 8 C0 5.36 0 2.72 0 0 Z " fill="#FDFDFD" transform="translate(185,100)"/>
<path d="M0 0 C2.31 0 4.62 0 7 0 C7 2.31 7 4.62 7 7 C4.69 7.33 2.38 7.66 0 8 C0 5.36 0 2.72 0 0 Z " fill="#FDFDFD" transform="translate(185,86)"/>
<path d="M0 0 C2.31 0 4.62 0 7 0 C7 2.31 7 4.62 7 7 C4.69 7 2.38 7 0 7 C0 4.69 0 2.38 0 0 Z " fill="#FEFEFE" transform="translate(171,185)"/>
<path d="M0 0 C2.31 0 4.62 0 7 0 C7 2.31 7 4.62 7 7 C4.69 7 2.38 7 0 7 C0 4.69 0 2.38 0 0 Z " fill="#FEFEFE" transform="translate(57,185)"/>
<path d="M0 0 C2.31 0 4.62 0 7 0 C7 2.31 7 4.62 7 7 C4.69 7 2.38 7 0 7 C0 4.69 0 2.38 0 0 Z " fill="#FEFEFE" transform="translate(14,185)"/>
<path d="M0 0 C2.31 0 4.62 0 7 0 C7 2.31 7 4.62 7 7 C4.69 7 2.38 7 0 7 C0 4.69 0 2.38 0 0 Z " fill="#FEFEFE" transform="translate(0,185)"/>
<path d="M0 0 C2.31 0 4.62 0 7 0 C7 2.31 7 4.62 7 7 C4.69 7 2.38 7 0 7 C0 4.69 0 2.38 0 0 Z " fill="#FEFEFE" transform="translate(171,171)"/>
<path d="M0 0 C2.31 0 4.62 0 7 0 C7 2.31 7 4.62 7 7 C4.69 7 2.38 7 0 7 C0 4.69 0 2.38 0 0 Z " fill="#FEFEFE" transform="translate(157,171)"/>
<path d="M0 0 C2.31 0 4.62 0 7 0 C7 2.31 7 4.62 7 7 C4.69 7 2.38 7 0 7 C0 4.69 0 2.38 0 0 Z " fill="#FEFEFE" transform="translate(114,171)"/>
<path d="M0 0 C2.31 0 4.62 0 7 0 C7 2.31 7 4.62 7 7 C4.69 7 2.38 7 0 7 C0 4.69 0 2.38 0 0 Z " fill="#FEFEFE" transform="translate(57,171)"/>
<path d="M0 0 C2.31 0 4.62 0 7 0 C7 2.31 7 4.62 7 7 C4.69 7 2.38 7 0 7 C0 4.69 0 2.38 0 0 Z " fill="#FEFEFE" transform="translate(14,171)"/>
<path d="M0 0 C2.31 0 4.62 0 7 0 C7 2.31 7 4.62 7 7 C4.69 7 2.38 7 0 7 C0 4.69 0 2.38 0 0 Z " fill="#FEFEFE" transform="translate(0,171)"/>
<path d="M0 0 C2.31 0 4.62 0 7 0 C7 2.31 7 4.62 7 7 C4.69 7 2.38 7 0 7 C0 4.69 0 2.38 0 0 Z " fill="#FEFEFE" transform="translate(164,164)"/>
<path d="M0 0 C2.31 0 4.62 0 7 0 C7 2.31 7 4.62 7 7 C4.69 7 2.38 7 0 7 C0 4.69 0 2.38 0 0 Z " fill="#F2F2F2" transform="translate(157,164)"/>
<path d="M0 0 C2.31 0 4.62 0 7 0 C7 2.31 7 4.62 7 7 C4.69 7 2.38 7 0 7 C0 4.69 0 2.38 0 0 Z " fill="#FEFEFE" transform="translate(150,164)"/>
<path d="M0 0 C2.31 0 4.62 0 7 0 C7 2.31 7 4.62 7 7 C4.69 7 2.38 7 0 7 C0 4.69 0 2.38 0 0 Z " fill="#FEFEFE" transform="translate(107,164)"/>
<path d="M0 0 C2.31 0 4.62 0 7 0 C7 2.31 7 4.62 7 7 C4.69 7 2.38 7 0 7 C0 4.69 0 2.38 0 0 Z " fill="#F2F2F2" transform="translate(100,164)"/>
<path d="M0 0 C2.31 0 4.62 0 7 0 C7 2.31 7 4.62 7 7 C4.69 7 2.38 7 0 7 C0 4.69 0 2.38 0 0 Z " fill="#F1F2F2" transform="translate(57,164)"/>
<path d="M0 0 C2.31 0 4.62 0 7 0 C7 2.31 7 4.62 7 7 C4.69 7 2.38 7 0 7 C0 4.69 0 2.38 0 0 Z " fill="#F2F2F2" transform="translate(43,164)"/>
<path d="M0 0 C2.31 0 4.62 0 7 0 C7 2.31 7 4.62 7 7 C4.69 7 2.38 7 0 7 C0 4.69 0 2.38 0 0 Z " fill="#F2F2F2" transform="translate(164,157)"/>
<path d="M0 0 C2.31 0 4.62 0 7 0 C7 2.31 7 4.62 7 7 C4.69 7 2.38 7 0 7 C0 4.69 0 2.38 0 0 Z " fill="#F2F2F2" transform="translate(150,157)"/>
<path d="M0 0 C2.31 0 4.62 0 7 0 C7 2.31 7 4.62 7 7 C4.69 7 2.38 7 0 7 C0 4.69 0 2.38 0 0 Z " fill="#F2F2F2" transform="translate(107,157)"/>
<path d="M0 0 C2.31 0 4.62 0 7 0 C7 2.31 7 4.62 7 7 C4.69 7 2.38 7 0 7 C0 4.69 0 2.38 0 0 Z " fill="#FEFEFE" transform="translate(164,150)"/>
<path d="M0 0 C2.31 0 4.62 0 7 0 C7 2.31 7 4.62 7 7 C4.69 7 2.38 7 0 7 C0 4.69 0 2.38 0 0 Z " fill="#FEFEFE" transform="translate(150,150)"/>
<path d="M0 0 C2.31 0 4.62 0 7 0 C7 2.31 7 4.62 7 7 C4.69 7 2.38 7 0 7 C0 4.69 0 2.38 0 0 Z " fill="#FEFEFE" transform="translate(107,150)"/>
<path d="M0 0 C2.31 0 4.62 0 7 0 C7 2.31 7 4.62 7 7 C4.69 7 2.38 7 0 7 C0 4.69 0 2.38 0 0 Z " fill="#FEFEFE" transform="translate(93,150)"/>
<path d="M0 0 C2.31 0 4.62 0 7 0 C7 2.31 7 4.62 7 7 C4.69 7 2.38 7 0 7 C0 4.69 0 2.38 0 0 Z " fill="#FDFDFE" transform="translate(64,150)"/>
<path d="M0 0 C2.31 0 4.62 0 7 0 C7 2.31 7 4.62 7 7 C4.69 7 2.38 7 0 7 C0 4.69 0 2.38 0 0 Z " fill="#F2F2F2" transform="translate(14,150)"/>
<path d="M0 0 C2.31 0 4.62 0 7 0 C7 2.31 7 4.62 7 7 C4.69 7 2.38 7 0 7 C0 4.69 0 2.38 0 0 Z " fill="#F2F2F2" transform="translate(0,150)"/>
<path d="M0 0 C2.31 0 4.62 0 7 0 C7 2.31 7 4.62 7 7 C4.69 7 2.38 7 0 7 C0 4.69 0 2.38 0 0 Z " fill="#F2F2F2" transform="translate(7,143)"/>
<path d="M0 0 C2.31 0 4.62 0 7 0 C7 2.31 7 4.62 7 7 C4.69 7 2.38 7 0 7 C0 4.69 0 2.38 0 0 Z " fill="#FEFEFE" transform="translate(171,114)"/>
<path d="M0 0 C2.31 0 4.62 0 7 0 C7 2.31 7 4.62 7 7 C4.69 7 2.38 7 0 7 C0 4.69 0 2.38 0 0 Z " fill="#FEFEFE" transform="translate(14,114)"/>
<path d="M0 0 C2.31 0 4.62 0 7 0 C7 2.31 7 4.62 7 7 C4.69 7 2.38 7 0 7 C0 4.69 0 2.38 0 0 Z " fill="#FEFEFE" transform="translate(0,114)"/>
<path d="M0 0 C1.4540625 0.0309375 1.4540625 0.0309375 2.9375 0.0625 C2.9375 2.3725 2.9375 4.6825 2.9375 7.0625 C0.6275 7.3925 -1.6825 7.7225 -4.0625 8.0625 C-4.10491723 5.72955225 -4.10342937 3.39547433 -4.0625 1.0625 C-3.0625 0.0625 -3.0625 0.0625 0 0 Z " fill="#FDFDFD" transform="translate(82.0625,106.9375)"/>
<path d="M0 0 C2.31 0 4.62 0 7 0 C7 2.31 7 4.62 7 7 C4.69 7 2.38 7 0 7 C0 4.69 0 2.38 0 0 Z " fill="#FEFEFE" transform="translate(64,107)"/>
<path d="M0 0 C2.31 0 4.62 0 7 0 C7 2.31 7 4.62 7 7 C4.69 7 2.38 7 0 7 C0 4.69 0 2.38 0 0 Z " fill="#FEFEFE" transform="translate(164,93)"/>
<path d="M0 0 C2.31 0 4.62 0 7 0 C7 2.31 7 4.62 7 7 C4.69 7 2.38 7 0 7 C0 4.69 0 2.38 0 0 Z " fill="#FDFDFD" transform="translate(7,93)"/>
<path d="M0 0 C2.31 0 4.62 0 7 0 C7 2.31 7 4.62 7 7 C4.69 7 2.38 7 0 7 C0 4.69 0 2.38 0 0 Z " fill="#FDFDFD" transform="translate(14,86)"/>
<path d="M0 0 C2.31 0 4.62 0 7 0 C7 2.31 7 4.62 7 7 C4.69 7 2.38 7 0 7 C0 4.69 0 2.38 0 0 Z " fill="#FEFEFE" transform="translate(157,57)"/>
<path d="M0 0 C2.31 0 4.62 0 7 0 C7 2.31 7 4.62 7 7 C4.69 7 2.38 7 0 7 C0 4.69 0 2.38 0 0 Z " fill="#FEFEFE" transform="translate(14,57)"/>
<path d="M0 0 C2.31 0 4.62 0 7 0 C7 2.31 7 4.62 7 7 C4.69 7 2.38 7 0 7 C0 4.69 0 2.38 0 0 Z " fill="#FEFEFE" transform="translate(0,57)"/>
<path d="M0 0 C2.31 0 4.62 0 7 0 C7 2.31 7 4.62 7 7 C4.69 7 2.38 7 0 7 C0 4.69 0 2.38 0 0 Z " fill="#FEFEFE" transform="translate(164,50)"/>
<path d="M0 0 C2.31 0 4.62 0 7 0 C7 2.31 7 4.62 7 7 C4.69 7 2.38 7 0 7 C0 4.69 0 2.38 0 0 Z " fill="#FEFEFE" transform="translate(93,50)"/>
<path d="M0 0 C2.31 0 4.62 0 7 0 C7 2.31 7 4.62 7 7 C4.69 7 2.38 7 0 7 C0 4.69 0 2.38 0 0 Z " fill="#FDFDFD" transform="translate(64,50)"/>
<path d="M0 0 C2.31 0 4.62 0 7 0 C7 2.31 7 4.62 7 7 C4.69 7 2.38 7 0 7 C0 4.69 0 2.38 0 0 Z " fill="#F1F2F2" transform="translate(0,50)"/>
<path d="M0 0 C2.31 0 4.62 0 7 0 C7 2.31 7 4.62 7 7 C4.69 7 2.38 7 0 7 C0 4.69 0 2.38 0 0 Z " fill="#F2F2F2" transform="translate(164,43)"/>
<path d="M0 0 C2.31 0 4.62 0 7 0 C7 2.31 7 4.62 7 7 C4.69 7 2.38 7 0 7 C0 4.69 0 2.38 0 0 Z " fill="#F2F2F2" transform="translate(64,43)"/>
<path d="M0 0 C2.31 0 4.62 0 7 0 C7 2.31 7 4.62 7 7 C4.69 7 2.38 7 0 7 C0 4.69 0 2.38 0 0 Z " fill="#F2F2F2" transform="translate(7,43)"/>
<path d="M0 0 C2.31 0 4.62 0 7 0 C7 2.31 7 4.62 7 7 C4.69 7 2.38 7 0 7 C0 4.69 0 2.38 0 0 Z " fill="#FEFEFE" transform="translate(164,36)"/>
<path d="M0 0 C2.31 0 4.62 0 7 0 C7 2.31 7 4.62 7 7 C4.69 7 2.38 7 0 7 C0 4.69 0 2.38 0 0 Z " fill="#FEFDFE" transform="translate(150,36)"/>
<path d="M0 0 C2.31 0 4.62 0 7 0 C7 2.31 7 4.62 7 7 C4.69 7 2.38 7 0 7 C0 4.69 0 2.38 0 0 Z " fill="#FEFEFE" transform="translate(107,36)"/>
<path d="M0 0 C2.31 0 4.62 0 7 0 C7 2.31 7 4.62 7 7 C4.69 7 2.38 7 0 7 C0 4.69 0 2.38 0 0 Z " fill="#F2F2F2" transform="translate(57,36)"/>
<path d="M0 0 C2.31 0 4.62 0 7 0 C7 2.31 7 4.62 7 7 C4.69 7 2.38 7 0 7 C0 4.69 0 2.38 0 0 Z " fill="#F2F2F2" transform="translate(0,36)"/>
<path d="M0 0 C2.31 0 4.62 0 7 0 C7 2.31 7 4.62 7 7 C4.69 7 2.38 7 0 7 C0 4.69 0 2.38 0 0 Z " fill="#FEFEFE" transform="translate(171,14)"/>
<path d="M0 0 C2.31 0 4.62 0 7 0 C7 2.31 7 4.62 7 7 C4.69 7 2.38 7 0 7 C0 4.69 0 2.38 0 0 Z " fill="#F2F2F2" transform="translate(150,14)"/>
<path d="M0 0 C2.31 0 4.62 0 7 0 C7 2.31 7 4.62 7 7 C4.69 7 2.38 7 0 7 C0 4.69 0 2.38 0 0 Z " fill="#FEFEFE" transform="translate(0,14)"/>
<path d="M0 0 C2.31 0 4.62 0 7 0 C7 2.31 7 4.62 7 7 C4.69 7 2.38 7 0 7 C0 4.69 0 2.38 0 0 Z " fill="#FEFEFE" transform="translate(157,0)"/>
<path d="M0 0 C2.31 0 4.62 0 7 0 C7 2.31 7 4.62 7 7 C4.69 7 2.38 7 0 7 C0 4.69 0 2.38 0 0 Z " fill="#FEFEFE" transform="translate(100,0)"/>
<path d="M0 0 C2.31 0 4.62 0 7 0 C7 2.31 7 4.62 7 7 C4.69 7 2.38 7 0 7 C0 4.69 0 2.38 0 0 Z " fill="#FEFEFE" transform="translate(71,0)"/>
<path d="M0 0 C2.31 0 4.62 0 7 0 C7 2.31 7 4.62 7 7 C4.69 7 2.38 7 0 7 C0 4.69 0 2.38 0 0 Z " fill="#FEFEFE" transform="translate(57,0)"/>
<path d="M0 0 C2.31 0 4.62 0 7 0 C7 2.31 7 4.62 7 7 C4.69 7 2.38 7 0 7 C0 4.69 0 2.38 0 0 Z " fill="#F1F2F2" transform="translate(7,0)"/>
<path d="M0 0 C2.31 0 4.62 0 7 0 C7 2.31 7 4.62 7 7 C4.69 7 2.38 7 0 7 C0 4.69 0 2.38 0 0 Z " fill="#FEFEFE" transform="translate(0,0)"/>
<path d="M0 0 C1.4540625 0.0309375 1.4540625 0.0309375 2.9375 0.0625 C2.9375 2.3725 2.9375 4.6825 2.9375 7.0625 C0.6275 7.0625 -1.6825 7.0625 -4.0625 7.0625 C-4.10504356 5.06295254 -4.10330783 3.06208364 -4.0625 1.0625 C-3.0625 0.0625 -3.0625 0.0625 0 0 Z " fill="#FEFEFE" transform="translate(189.0625,184.9375)"/>
<path d="M0 0 C1.4540625 0.0309375 1.4540625 0.0309375 2.9375 0.0625 C2.9375 2.3725 2.9375 4.6825 2.9375 7.0625 C0.6275 7.0625 -1.6825 7.0625 -4.0625 7.0625 C-4.10504356 5.06295254 -4.10330783 3.06208364 -4.0625 1.0625 C-3.0625 0.0625 -3.0625 0.0625 0 0 Z " fill="#F2F2F2" transform="translate(168.0625,184.9375)"/>
<path d="M0 0 C1.4540625 0.0309375 1.4540625 0.0309375 2.9375 0.0625 C2.9375 2.3725 2.9375 4.6825 2.9375 7.0625 C0.6275 7.0625 -1.6825 7.0625 -4.0625 7.0625 C-4.10504356 5.06295254 -4.10330783 3.06208364 -4.0625 1.0625 C-3.0625 0.0625 -3.0625 0.0625 0 0 Z " fill="#F2F2F2" transform="translate(154.0625,184.9375)"/>
<path d="M0 0 C1.4540625 0.0309375 1.4540625 0.0309375 2.9375 0.0625 C2.9375 2.3725 2.9375 4.6825 2.9375 7.0625 C0.6275 7.0625 -1.6825 7.0625 -4.0625 7.0625 C-4.10504356 5.06295254 -4.10330783 3.06208364 -4.0625 1.0625 C-3.0625 0.0625 -3.0625 0.0625 0 0 Z " fill="#F2F2F2" transform="translate(97.0625,184.9375)"/>
<path d="M0 0 C1.4540625 0.0309375 1.4540625 0.0309375 2.9375 0.0625 C2.9375 2.3725 2.9375 4.6825 2.9375 7.0625 C0.6275 7.0625 -1.6825 7.0625 -4.0625 7.0625 C-4.10504356 5.06295254 -4.10330783 3.06208364 -4.0625 1.0625 C-3.0625 0.0625 -3.0625 0.0625 0 0 Z " fill="#FEFEFE" transform="translate(75.0625,184.9375)"/>
<path d="M0 0 C1.4540625 0.0309375 1.4540625 0.0309375 2.9375 0.0625 C2.9375 2.3725 2.9375 4.6825 2.9375 7.0625 C0.6275 7.0625 -1.6825 7.0625 -4.0625 7.0625 C-4.10504356 5.06295254 -4.10330783 3.06208364 -4.0625 1.0625 C-3.0625 0.0625 -3.0625 0.0625 0 0 Z " fill="#FEFEFE" transform="translate(189.0625,170.9375)"/>
<path d="M0 0 C1.4540625 0.0309375 1.4540625 0.0309375 2.9375 0.0625 C2.9375 2.3725 2.9375 4.6825 2.9375 7.0625 C0.6275 7.0625 -1.6825 7.0625 -4.0625 7.0625 C-4.10504356 5.06295254 -4.10330783 3.06208364 -4.0625 1.0625 C-3.0625 0.0625 -3.0625 0.0625 0 0 Z " fill="#F1F2F2" transform="translate(75.0625,163.9375)"/>
<path d="M0 0 C1.4540625 0.0309375 1.4540625 0.0309375 2.9375 0.0625 C2.9375 2.3725 2.9375 4.6825 2.9375 7.0625 C0.6275 7.0625 -1.6825 7.0625 -4.0625 7.0625 C-4.10504356 5.06295254 -4.10330783 3.06208364 -4.0625 1.0625 C-3.0625 0.0625 -3.0625 0.0625 0 0 Z " fill="#FEFDFD" transform="translate(25.0625,163.9375)"/>
<path d="M0 0 C1.4540625 0.0309375 1.4540625 0.0309375 2.9375 0.0625 C2.9375 2.3725 2.9375 4.6825 2.9375 7.0625 C0.6275 7.0625 -1.6825 7.0625 -4.0625 7.0625 C-4.10504356 5.06295254 -4.10330783 3.06208364 -4.0625 1.0625 C-3.0625 0.0625 -3.0625 0.0625 0 0 Z " fill="#F2F2F2" transform="translate(18.0625,163.9375)"/>
<path d="M0 0 C1.4540625 0.0309375 1.4540625 0.0309375 2.9375 0.0625 C2.9375 2.3725 2.9375 4.6825 2.9375 7.0625 C0.6275 7.0625 -1.6825 7.0625 -4.0625 7.0625 C-4.10504356 5.06295254 -4.10330783 3.06208364 -4.0625 1.0625 C-3.0625 0.0625 -3.0625 0.0625 0 0 Z " fill="#F2F2F2" transform="translate(189.0625,149.9375)"/>
<path d="M0 0 C1.32 0.33 2.64 0.66 4 1 C4 3.97 4 6.94 4 10 C3.67 9.34 3.34 8.68 3 8 C1.68 8 0.36 8 -1 8 C-1.33 8.66 -1.66 9.32 -2 10 C-2.1953125 3.9453125 -2.1953125 3.9453125 -2 2 C-1.34 1.34 -0.68 0.68 0 0 Z " fill="#E2E4E6" transform="translate(46,120)"/>
<path d="M0 0 C1.4540625 0.0309375 1.4540625 0.0309375 2.9375 0.0625 C2.9375 2.3725 2.9375 4.6825 2.9375 7.0625 C0.6275 7.0625 -1.6825 7.0625 -4.0625 7.0625 C-4.10504356 5.06295254 -4.10330783 3.06208364 -4.0625 1.0625 C-3.0625 0.0625 -3.0625 0.0625 0 0 Z " fill="#F2F2F2" transform="translate(189.0625,106.9375)"/>
<path d="M0 0 C1.4540625 0.0309375 1.4540625 0.0309375 2.9375 0.0625 C2.9375 2.3725 2.9375 4.6825 2.9375 7.0625 C0.6275 7.0625 -1.6825 7.0625 -4.0625 7.0625 C-4.10504356 5.06295254 -4.10330783 3.06208364 -4.0625 1.0625 C-3.0625 0.0625 -3.0625 0.0625 0 0 Z " fill="#F2F2F2" transform="translate(18.0625,106.9375)"/>
<path d="M0 0 C1.4540625 0.0309375 1.4540625 0.0309375 2.9375 0.0625 C2.9375 2.3725 2.9375 4.6825 2.9375 7.0625 C0.6275 7.0625 -1.6825 7.0625 -4.0625 7.0625 C-4.10504356 5.06295254 -4.10330783 3.06208364 -4.0625 1.0625 C-3.0625 0.0625 -3.0625 0.0625 0 0 Z " fill="#F2F2F2" transform="translate(189.0625,49.9375)"/>
<path d="M0 0 C1.4540625 0.0309375 1.4540625 0.0309375 2.9375 0.0625 C2.9375 2.3725 2.9375 4.6825 2.9375 7.0625 C0.6275 7.0625 -1.6825 7.0625 -4.0625 7.0625 C-4.10504356 5.06295254 -4.10330783 3.06208364 -4.0625 1.0625 C-3.0625 0.0625 -3.0625 0.0625 0 0 Z " fill="#FDFEFD" transform="translate(25.0625,49.9375)"/>
<path d="M0 0 C1.4540625 0.0309375 1.4540625 0.0309375 2.9375 0.0625 C2.9375 2.3725 2.9375 4.6825 2.9375 7.0625 C0.6275 7.0625 -1.6825 7.0625 -4.0625 7.0625 C-4.10504356 5.06295254 -4.10330783 3.06208364 -4.0625 1.0625 C-3.0625 0.0625 -3.0625 0.0625 0 0 Z " fill="#F2F2F2" transform="translate(189.0625,35.9375)"/>
<path d="M0 0 C2.31 0 4.62 0 7 0 C7.04254356 1.99954746 7.04080783 4.00041636 7 6 C6 7 6 7 2.9375 7.0625 C1.4834375 7.0315625 1.4834375 7.0315625 0 7 C0 4.69 0 2.38 0 0 Z " fill="#F2F2F2" transform="translate(164,29)"/>
<path d="M0 0 C2.31 0 4.62 0 7 0 C7.04254356 1.99954746 7.04080783 4.00041636 7 6 C6 7 6 7 2.9375 7.0625 C1.4834375 7.0315625 1.4834375 7.0315625 0 7 C0 4.69 0 2.38 0 0 Z " fill="#F2F2F2" transform="translate(150,29)"/>
<path d="M0 0 C0.78375 0.04125 1.5675 0.0825 2.375 0.125 C2.375 2.435 2.375 4.745 2.375 7.125 C0.065 7.125 -2.245 7.125 -4.625 7.125 C-4.75 4.75 -4.75 4.75 -4.625 2.125 C-2.625 0.125 -2.625 0.125 0 0 Z " fill="#FDFDFD" transform="translate(104.625,127.875)"/>
<path d="M0 0 C1.09658936 3.28976808 0.79953138 4.71303767 0 8 C-0.99 7.34 -1.98 6.68 -3 6 C-3.66 6.66 -4.32 7.32 -5 8 C-7.625 8.125 -7.625 8.125 -10 8 C-9.01 7.67 -8.02 7.34 -7 7 C-7 5.35 -7 3.7 -7 2 C-4.69 1.34 -2.38 0.68 0 0 Z " fill="#E4ECF1" transform="translate(121,120)"/>
<path d="M0 0 C2.31 0 4.62 0 7 0 C7 2.31 7 4.62 7 7 C4.69 6.67 2.38 6.34 0 6 C0 4.02 0 2.04 0 0 Z " fill="#FDFDFD" transform="translate(57,86)"/>
<path d="M0 0 C1.98 0 3.96 0 6 0 C6.38133299 1.9914056 6.71325582 3.99279077 7 6 C6 7 6 7 2.9375 7.0625 C1.4834375 7.0315625 1.4834375 7.0315625 0 7 C0 4.69 0 2.38 0 0 Z " fill="#F2F2F2" transform="translate(136,0)"/>
<path d="M0 0 C2.125 0.375 2.125 0.375 4 1 C4.625 3.375 4.625 3.375 5 6 C4.34 6.66 3.68 7.32 3 8 C0.375 7.625 0.375 7.625 -2 7 C-2.125 4.625 -2.125 4.625 -2 2 C-1.34 1.34 -0.68 0.68 0 0 Z " fill="#DDE9F1" transform="translate(161,120)"/>
<path d="M0 0 C1.98 0 3.96 0 6 0 C6.38133299 1.9914056 6.71325582 3.99279077 7 6 C6 7 6 7 2.9375 7.0625 C1.4834375 7.0315625 1.4834375 7.0315625 0 7 C0 4.69 0 2.38 0 0 Z " fill="#F2F2F2" transform="translate(136,157)"/>
<path d="M0 0 C1.98 0 3.96 0 6 0 C6.38133299 1.9914056 6.71325582 3.99279077 7 6 C6 7 6 7 2.9375 7.0625 C1.4834375 7.0315625 1.4834375 7.0315625 0 7 C0 4.69 0 2.38 0 0 Z " fill="#F2F2F2" transform="translate(136,143)"/>
<path d="M0 0 C2.31 0 4.62 0 7 0 C7 1.98 7 3.96 7 6 C4.3333581 7.33332095 2.83319697 6.67102033 0 6 C0 4.02 0 2.04 0 0 Z " fill="#F2F2F2" transform="translate(157,79)"/>
<path d="M0 0 C1.98 0 3.96 0 6 0 C6 2.31 6 4.62 6 7 C4.02 7 2.04 7 0 7 C0 4.69 0 2.38 0 0 Z " fill="#F1F2F2" transform="translate(136,171)"/>
<path d="M0 0 C2.31 0 4.62 0 7 0 C7 1.98 7 3.96 7 6 C4.69 6 2.38 6 0 6 C0 4.02 0 2.04 0 0 Z " fill="#F1F2F2" transform="translate(171,79)"/>
<path d="M0 0 C2.31 0 4.62 0 7 0 C7 1.98 7 3.96 7 6 C4.69 6 2.38 6 0 6 C0 4.02 0 2.04 0 0 Z " fill="#F1F2F2" transform="translate(0,79)"/>
<path d="M0 0 C0.309375 0.9590625 0.309375 0.9590625 0.625 1.9375 C1.89538209 4.34925077 1.89538209 4.34925077 5.125 4.75 C6.07375 4.8325 7.0225 4.915 8 5 C6.68 5.33 5.36 5.66 4 6 C4 6.66 4 7.32 4 8 C1.69 8 -0.62 8 -3 8 C-3.1875 5.125 -3.1875 5.125 -3 2 C-2.01 1.34 -1.02 0.68 0 0 Z " fill="#DCE8F0" transform="translate(117,63)"/>
<path d="M0 0 C1.98 0 3.96 0 6 0 C6 2.31 6 4.62 6 7 C4.02 7 2.04 7 0 7 C0 4.69 0 2.38 0 0 Z " fill="#F1F2F2" transform="translate(136,57)"/>
<path d="M0 0 C2.125 0.375 2.125 0.375 4 1 C4.38218767 2.65614657 4.71395102 4.32457024 5 6 C4 7 4 7 1.4375 7.0625 C0.2309375 7.0315625 0.2309375 7.0315625 -1 7 C-1.625 4.625 -1.625 4.625 -2 2 C-1.34 1.34 -0.68 0.68 0 0 Z " fill="#E8EAEC" transform="translate(82,120)"/>
<path d="M0 0 C4.455 0.99 4.455 0.99 9 2 C8.01 2.495 8.01 2.495 7 3 C7 4.32 7 5.64 7 7 C4.69 7 2.38 7 0 7 C0 4.69 0 2.38 0 0 Z " fill="#E2EBF0" transform="translate(107,128)"/>
<path d="M0 0 C1.66611905 -0.042721 3.33382885 -0.04063832 5 0 C6 1 6 1 6.0625 3.5625 C6.041875 4.366875 6.02125 5.17125 6 6 C4.34385343 6.38218767 2.67542976 6.71395102 1 7 C0 6 0 6 -0.0625 2.9375 C-0.041875 1.968125 -0.02125 0.99875 0 0 Z " fill="#E2ECF2" transform="translate(131,121)"/>
<path d="M0 0 C0.66 0 1.32 0 2 0 C2 5.61 2 11.22 2 17 C1.34 17 0.68 17 0 17 C-1.14819277 11.1314592 -0.77313045 5.9114744 0 0 Z " fill="#068CDA" transform="translate(166,113)"/>
<path d="M0 0 C1.32 0 2.64 0 4 0 C4.33 2.31 4.66 4.62 5 7 C3.35 7 1.7 7 0 7 C-0.33 7.66 -0.66 8.32 -1 9 C-1.09765625 2.84765625 -1.09765625 2.84765625 -1 1 C-0.67 0.67 -0.34 0.34 0 0 Z " fill="#E1E3E5" transform="translate(73,121)"/>
<path d="M0 0 C2.31 0 4.62 0 7 0 C7 0.99 7 1.98 7 3 C5.68 3.33 4.36 3.66 3 4 C2.67 6.64 2.34 9.28 2 12 C1.34 12 0.68 12 0 12 C0 8.04 0 4.08 0 0 Z " fill="#495E6D" transform="translate(70,118)"/>
<path d="M0 0 C0.99 0.33 1.98 0.66 3 1 C3.75540408 5.2806231 4.35628667 8.81811611 3 13 C2.01 14.32 1.02 15.64 0 17 C0 11.39 0 5.78 0 0 Z " fill="#D8E8F1" transform="translate(125,113)"/>
<path d="M0 0 C0.99 0 1.98 0 3 0 C3 3.96 3 7.92 3 12 C2.01 12 1.02 12 0 12 C0 8.04 0 4.08 0 0 Z " fill="#465A69" transform="translate(36,118)"/>
<path d="M0 0 C2.97 0 5.94 0 9 0 C9 0.33 9 0.66 9 1 C7.35 1 5.7 1 4 1 C3.34 4.63 2.68 8.26 2 12 C1.34 12 0.68 12 0 12 C0 8.04 0 4.08 0 0 Z " fill="#475B6A" transform="translate(42,118)"/>
<path d="M0 0 C2.31 0 4.62 0 7 0 C7 1.65 7 3.3 7 5 C4.69 5 2.38 5 0 5 C0 3.35 0 1.7 0 0 Z " fill="#FEFEFE" transform="translate(107,93)"/>
<path d="M0 0 C2.31 0 4.62 0 7 0 C7 1.65 7 3.3 7 5 C4.69 5 2.38 5 0 5 C0 3.35 0 1.7 0 0 Z " fill="#F2F2F2" transform="translate(71,93)"/>
<path d="M0 0 C2.31 0 4.62 0 7 0 C7 1.65 7 3.3 7 5 C4.69 5 2.38 5 0 5 C0 3.35 0 1.7 0 0 Z " fill="#FEFEFE" transform="translate(93,36)"/>
<path d="M0 0 C0.66 0 1.32 0 2 0 C2.66 2.64 3.32 5.28 4 8 C1.69 8.66 -0.62 9.32 -3 10 C-1.125 2.25 -1.125 2.25 0 0 Z " fill="#E4E8EB" transform="translate(103,120)"/>
<path d="M0 0 C0.94875 0.04125 1.8975 0.0825 2.875 0.125 C3.535 1.445 4.195 2.765 4.875 4.125 C-1.875 4.25 -1.875 4.25 -4.125 3.125 C-4.125 4.775 -4.125 6.425 -4.125 8.125 C-4.455 8.125 -4.785 8.125 -5.125 8.125 C-5.25 5.25 -5.25 5.25 -5.125 2.125 C-3.125 0.125 -3.125 0.125 0 0 Z " fill="#9AA5AD" transform="translate(60.125,118.875)"/>
<path d="M0 0 C1.62490954 -0.02698189 3.24994633 -0.04638757 4.875 -0.0625 C5.77992187 -0.07410156 6.68484375 -0.08570313 7.6171875 -0.09765625 C10 0 10 0 12 1 C12 1.66 12 2.32 12 3 C8.04 3 4.08 3 0 3 C0 2.01 0 1.02 0 0 Z " fill="#F2F4F6" transform="translate(93,47)"/>
<path d="M0 0 C0.66 0 1.32 0 2 0 C2.0825 1.27875 2.165 2.5575 2.25 3.875 C2.45869931 6.05333418 2.45869931 6.05333418 3 8 C4.92064793 9.5899433 4.92064793 9.5899433 7 10 C7 10.33 7 10.66 7 11 C5.00045254 11.04254356 2.99958364 11.04080783 1 11 C0 10 0 10 -0.09765625 7.71484375 C-0.08605469 6.79832031 -0.07445312 5.88179688 -0.0625 4.9375 C-0.05347656 4.01839844 -0.04445312 3.09929687 -0.03515625 2.15234375 C-0.02355469 1.44207031 -0.01195312 0.73179688 0 0 Z " fill="#0D90DB" transform="translate(143,119)"/>
<path d="M0 0 C2.31 0 4.62 0 7 0 C6.25 4.75 6.25 4.75 4 7 C4 6.34 4 5.68 4 5 C3.01 5 2.02 5 1 5 C0.67 3.35 0.34 1.7 0 0 Z " fill="#E0EEE4" transform="translate(85,80)"/>
<path d="M0 0 C2.31 0.33 4.62 0.66 7 1 C7 2.32 7 3.64 7 5 C4.69 5 2.38 5 0 5 C0 3.35 0 1.7 0 0 Z " fill="#FDFDFD" transform="translate(57,130)"/>
<path d="M0 0 C1.4540625 0.0309375 1.4540625 0.0309375 2.9375 0.0625 C2.9375 1.3825 2.9375 2.7025 2.9375 4.0625 C0.6275 4.7225 -1.6825 5.3825 -4.0625 6.0625 C-4.105221 4.39638095 -4.10313832 2.72867115 -4.0625 1.0625 C-3.0625 0.0625 -3.0625 0.0625 0 0 Z " fill="#ECEDEE" transform="translate(82.0625,113.9375)"/>
<path d="M0 0 C1.65 0 3.3 0 5 0 C5 1.98 5 3.96 5 6 C3.35 6 1.7 6 0 6 C0 4.02 0 2.04 0 0 Z " fill="#F1F2F2" transform="translate(43,79)"/>
<path d="M0 0 C0 2.31 0 4.62 0 7 C-1.65 7 -3.3 7 -5 7 C-5.1875 4.625 -5.1875 4.625 -5 2 C-2 0 -2 0 0 0 Z " fill="#FCFDFC" transform="translate(107,57)"/>
<path d="M0 0 C2.86724686 0.57344937 3.8614515 0.8614515 6 3 C6 3.99 6 4.98 6 6 C4.02 6 2.04 6 0 6 C0 4.02 0 2.04 0 0 Z " fill="#F3F9FC" transform="translate(107,51)"/>
<path d="M0 0 C2.97 0.33 5.94 0.66 9 1 C8.34 2.32 7.68 3.64 7 5 C4.03 4.505 4.03 4.505 1 4 C0.67 4.66 0.34 5.32 0 6 C0 4.02 0 2.04 0 0 Z " fill="#E2E5E6" transform="translate(78,128)"/>
<path d="M0 0 C0.99 0 1.98 0 3 0 C3.66 2.31 4.32 4.62 5 7 C5.66 7 6.32 7 7 7 C7 7.66 7 8.32 7 9 C5.68 9.33 4.36 9.66 3 10 C0 3.375 0 3.375 0 0 Z " fill="#596C7A" transform="translate(92,118)"/>
<path d="M0 0 C0.78375 0.04125 1.5675 0.0825 2.375 0.125 C1.385 0.62 1.385 0.62 0.375 1.125 C0.375 2.445 0.375 3.765 0.375 5.125 C-1.275 5.125 -2.925 5.125 -4.625 5.125 C-4.955 6.115 -5.285 7.105 -5.625 8.125 C-4.59375 0.21875 -4.59375 0.21875 0 0 Z " fill="#DDE9F0" transform="translate(113.625,115.875)"/>
<path d="M0 0 C2.31 0 4.62 0 7 0 C7 1.32 7 2.64 7 4 C4.69 4 2.38 4 0 4 C0 2.68 0 1.36 0 0 Z " fill="#FDFDFD" transform="translate(64,67)"/>
<path d="M0 0 C1 2 1 2 0.0625 5.125 C-0.288125 6.07375 -0.63875 7.0225 -1 8 C-1.66 7.34 -2.32 6.68 -3 6 C-4.98 7.98 -6.96 9.96 -9 12 C-9.66 11.67 -10.32 11.34 -11 11 C-7.37 7.37 -3.74 3.74 0 0 Z " fill="#4AC768" transform="translate(102,57)"/>
<path d="M0 0 C1.98 0 3.96 0 6 0 C5.67 1.65 5.34 3.3 5 5 C3.35 5 1.7 5 0 5 C0 3.35 0 1.7 0 0 Z " fill="#E6ECF0" transform="translate(64,57)"/>
<path d="M0 0 C1.98 0 3.96 0 6 0 C6 2.97 6 5.94 6 9 C3.75972706 6.11964908 1.83827868 3.15133488 0 0 Z " fill="#E1EBF1" transform="translate(115,50)"/>
<path d="M0 0 C1.98 0 3.96 0 6 0 C6 1.98 6 3.96 6 6 C2.535 4.02 2.535 4.02 -1 2 C-0.67 1.34 -0.34 0.68 0 0 Z " fill="#DFE9EF" transform="translate(108,43)"/>
<path d="M0 0 C2.31 0 4.62 0 7 0 C7 0.99 7 1.98 7 3 C5.02 3.66 3.04 4.32 1 5 C0.67 3.35 0.34 1.7 0 0 Z " fill="#FCFCFC" transform="translate(43,114)"/>
<path d="M0 0 C2.31 0 4.62 0 7 0 C7 0.99 7 1.98 7 3 C4.69 3.33 2.38 3.66 0 4 C0 2.68 0 1.36 0 0 Z " fill="#FEFEFE" transform="translate(157,114)"/>
<path d="M0 0 C2.31 0 4.62 0 7 0 C7 0.99 7 1.98 7 3 C4.69 3.33 2.38 3.66 0 4 C0 2.68 0 1.36 0 0 Z " fill="#FEFEFE" transform="translate(57,114)"/>
<path d="M0 0 C2.97 0 5.94 0 9 0 C6 3 6 3 3.3125 3.1875 C2.1678125 3.0946875 2.1678125 3.0946875 1 3 C0.67 2.01 0.34 1.02 0 0 Z " fill="#DEE1E3" transform="translate(58,125)"/>
<path d="M0 0 C3.06393013 -0.25532751 4.63233212 -0.21861333 7.3125 1.375 C7.869375 1.91125 8.42625 2.4475 9 3 C9 3.66 9 4.32 9 5 C6.07471973 4.37315423 3.58774327 3.51695295 1 2 C0.67 1.34 0.34 0.68 0 0 Z " fill="#329DDD" transform="translate(111,113)"/>
<path d="M0 0 C2.31 0 4.62 0 7 0 C7 1.32 7 2.64 7 4 C4.625 3.6875 4.625 3.6875 2 3 C1.34 2.01 0.68 1.02 0 0 Z " fill="#E6EDF1" transform="translate(57,93)"/>
<path d="M0 0 C1.65 0 3.3 0 5 0 C5 2.31 5 4.62 5 7 C4.34 7 3.68 7 3 7 C2.01 4.69 1.02 2.38 0 0 Z " fill="#E6EDF1" transform="translate(137,71)"/>
<path d="M0 0 C0.33 1.32 0.66 2.64 1 4 C-1.31 4 -3.62 4 -6 4 C-6.33 3.01 -6.66 2.02 -7 1 C-5.5459375 1.0309375 -5.5459375 1.0309375 -4.0625 1.0625 C-1.12534105 1.35618499 -1.12534105 1.35618499 0 0 Z " fill="#4C606F" transform="translate(86,131)"/>
<path d="M0 0 C0.66 0 1.32 0 2 0 C1.67 2.31 1.34 4.62 1 7 C1.66 7.33 2.32 7.66 3 8 C2.01 8 1.02 8 0 8 C-0.38063221 5.6739143 -0.71269945 3.33944736 -1 1 C-0.67 0.67 -0.34 0.34 0 0 Z " fill="#E6E8E9" transform="translate(94,128)"/>
<path d="M0 0 C1.4540625 0.0309375 1.4540625 0.0309375 2.9375 0.0625 C2.9375 0.7225 2.9375 1.3825 2.9375 2.0625 C0.6275 2.7225 -1.6825 3.3825 -4.0625 4.0625 C-4.0625 0.08290816 -4.0625 0.08290816 0 0 Z " fill="#495E6D" transform="translate(83.0625,117.9375)"/>
<path d="M0 0 C0.66 0.33 1.32 0.66 2 1 C-0.64 3.64 -3.28 6.28 -6 9 C-6 6 -6 6 -3.5625 3.375 C-2.716875 2.59125 -1.87125 1.8075 -1 1 C-0.67 0.67 -0.34 0.34 0 0 Z " fill="#2297DC" transform="translate(58,64)"/>
<path d="M0 0 C2.33944736 0.28730055 4.6739143 0.61936779 7 1 C6.67 1.66 6.34 2.32 6 3 C2.9375 3.625 2.9375 3.625 0 4 C-0.33 3.01 -0.66 2.02 -1 1 C-0.67 0.67 -0.34 0.34 0 0 Z " fill="#2297DC" transform="translate(159,118)"/>
<path d="M0 0 C5.625 -0.25 5.625 -0.25 9 2 C9 2.99 9 3.98 9 5 C7.68 4.34 6.36 3.68 5 3 C5 2.34 5 1.68 5 1 C3.35 1 1.7 1 0 1 C0 0.67 0 0.34 0 0 Z " fill="#586B79" transform="translate(58,118)"/>
<path d="M0 0 C0.33 0 0.66 0 1 0 C1 1.98 1 3.96 1 6 C-0.32 6.33 -1.64 6.66 -3 7 C-1.125 1.125 -1.125 1.125 0 0 Z " fill="#E4ECF2" transform="translate(56,72)"/>
<path d="M0 0 C0 1.32 0 2.64 0 4 C-1.98 4 -3.96 4 -6 4 C-2.25 0 -2.25 0 0 0 Z " fill="#DAE7EF" transform="translate(64,67)"/>
</svg>
