<svg width="32" height="32" viewBox="0 0 32 32" xmlns="http://www.w3.org/2000/svg">
  <defs>
    <linearGradient id="leafGradient" x1="0%" y1="0%" x2="100%" y2="100%">
      <stop offset="0%" stop-color="#059669" />
      <stop offset="100%" stop-color="#3B82F6" />
    </linearGradient>
  </defs>
  
  <!-- Background Circle -->
  <circle cx="16" cy="16" r="15" fill="url(#leafGradient)" stroke="#ffffff" stroke-width="1"/>
  
  <!-- Leaf Icon -->
  <path d="M12 20c0-4.418 3.582-8 8-8s8 3.582 8 8c0 4.418-3.582 8-8 8s-8-3.582-8-8z" fill="none" stroke="#ffffff" stroke-width="2" stroke-linecap="round" stroke-linejoin="round" transform="translate(-4, -4) scale(0.8)"/>
  <path d="M16 12l-4 8" stroke="#ffffff" stroke-width="2" stroke-linecap="round" stroke-linejoin="round" transform="translate(-4, -4) scale(0.8)"/>
  
  <!-- Simplified Leaf Design -->
  <path d="M10 16c0-3.314 2.686-6 6-6s6 2.686 6 6c0 3.314-2.686 6-6 6s-6-2.686-6-6z" fill="none" stroke="#ffffff" stroke-width="1.5" stroke-linecap="round" stroke-linejoin="round"/>
  <path d="M16 10l-3 6" stroke="#ffffff" stroke-width="1.5" stroke-linecap="round"/>
  <path d="M16 10l3 6" stroke="#ffffff" stroke-width="1.5" stroke-linecap="round"/>
</svg>