<?xml version="1.0" encoding="UTF-8"?>
<svg version="1.1" xmlns="http://www.w3.org/2000/svg" width="32" height="32">
<path d="M0 0 C10.56 0 21.12 0 32 0 C32 10.56 32 21.12 32 32 C21.44 32 10.88 32 0 32 C0 21.44 0 10.88 0 0 Z " fill="#F6F7F7" transform="translate(0,0)"/>
<path d="M0 0 C4.11860484 0.23761182 6.37880111 0.46970827 9.5625 3.1875 C11 6 11 6 10.25 9.3125 C9.8375 10.199375 9.425 11.08625 9 12 C12 13.33333333 12 13.33333333 15 12 C15 12.99 15 13.98 15 15 C9.66666667 15 4.33333333 15 -1 15 C-2.03125 15.020625 -3.0625 15.04125 -4.125 15.0625 C-7 15 -7 15 -9 14 C-9 13.34 -9 12.68 -9 12 C-5.535 11.505 -5.535 11.505 -2 11 C-2.99 10.34 -3.98 9.68 -5 9 C-4.67 7.35 -4.34 5.7 -4 4 C-3.01 3.67 -2.02 3.34 -1 3 C-0.67 2.01 -0.34 1.02 0 0 Z " fill="#BCD9E9" transform="translate(13,7)"/>
<path d="M0 0 C6.4 0.36923077 6.4 0.36923077 9.4375 3.5625 C9.953125 4.366875 10.46875 5.17125 11 6 C10.34 7.32 9.68 8.64 9 10 C5.75 10.3125 5.75 10.3125 2 10 C-0.3125 7.5625 -0.3125 7.5625 -2 5 C-2.66 4.67 -3.32 4.34 -4 4 C-3.01 3.67 -2.02 3.34 -1 3 C-0.67 2.01 -0.34 1.02 0 0 Z " fill="#92CFD7" transform="translate(13,7)"/>
<path d="M0 0 C0.99 -0.33 1.98 -0.66 3 -1 C3 -0.01 3 0.98 3 2 C2.16855469 1.98839844 1.33710938 1.97679687 0.48046875 1.96484375 C-1.14955078 1.95130859 -1.14955078 1.95130859 -2.8125 1.9375 C-4.43091797 1.92009766 -4.43091797 1.92009766 -6.08203125 1.90234375 C-9.06512169 1.86375234 -9.06512169 1.86375234 -12 3 C-12 2.01 -12 1.02 -12 0 C-3.76470588 -1.88235294 -3.76470588 -1.88235294 0 0 Z " fill="#94C0DA" transform="translate(25,20)"/>
<path d="M0 0 C2 1.25 2 1.25 4 3 C4 4.32 4 5.64 4 7 C2.02 7 0.04 7 -2 7 C-1.34 4.69 -0.68 2.38 0 0 Z " fill="#F4F6F6" transform="translate(18,9)"/>
<path d="M0 0 C2.64 0.33 5.28 0.66 8 1 C8 1.66 8 2.32 8 3 C2.25 3.125 2.25 3.125 0 2 C0 1.34 0 0.68 0 0 Z " fill="#A8B1B8" transform="translate(4,19)"/>
<path d="M0 0 C1.5 1.375 1.5 1.375 3 3 C3 3.66 3 4.32 3 5 C1.35 4.67 -0.3 4.34 -2 4 C-2 3.01 -2 2.02 -2 1 C-1.34 0.67 -0.68 0.34 0 0 Z " fill="#F5F7F7" transform="translate(11,11)"/>
</svg>
